<svg width="20" height="20" viewBox="0 0 20 20" fill="none" xmlns="http://www.w3.org/2000/svg">
<g id="ArrowsDownUp">
<path id="Vector" d="M9.51083 12.5532C9.54528 12.6363 9.55433 12.7277 9.53684 12.8158C9.51934 12.904 9.47609 12.985 9.41254 13.0486L7.59449 14.8667C7.55228 14.909 7.50215 14.9425 7.44697 14.9654C7.3918 14.9882 7.33265 15 7.27292 15C7.21319 15 7.15405 14.9882 7.09887 14.9654C7.04369 14.9425 6.99357 14.909 6.95135 14.8667L5.1333 13.0486C5.06967 12.9851 5.02632 12.9041 5.00875 12.8158C4.99119 12.7276 5.00019 12.6362 5.03462 12.5531C5.06905 12.47 5.12736 12.399 5.20217 12.3491C5.27698 12.2991 5.36492 12.2725 5.45487 12.2726H6.81841V5.45487C6.81841 5.33433 6.8663 5.21872 6.95153 5.13348C7.03677 5.04824 7.15238 5.00036 7.27292 5.00036C7.39347 5.00036 7.50907 5.04824 7.59431 5.13348C7.67955 5.21872 7.72744 5.33433 7.72744 5.45487V12.2726H9.09097C9.18087 12.2726 9.26874 12.2993 9.34347 12.3492C9.4182 12.3992 9.47645 12.4702 9.51083 12.5532ZM14.8667 6.95135L13.0486 5.1333C13.0064 5.09104 12.9563 5.05752 12.9011 5.03465C12.846 5.01177 12.7868 5 12.7271 5C12.6673 5 12.6082 5.01177 12.553 5.03465C12.4978 5.05752 12.4477 5.09104 12.4055 5.1333L10.5875 6.95135C10.5238 7.01492 10.4805 7.09594 10.4629 7.18415C10.4453 7.27237 10.4543 7.36381 10.4888 7.44691C10.5232 7.53 10.5815 7.60101 10.6563 7.65095C10.7311 7.70089 10.8191 7.72751 10.909 7.72744H12.2726V14.5451C12.2726 14.6657 12.3204 14.7813 12.4057 14.8665C12.4909 14.9518 12.6065 14.9996 12.7271 14.9996C12.8476 14.9996 12.9632 14.9518 13.0485 14.8665C13.1337 14.7813 13.1816 14.6657 13.1816 14.5451V7.72744H14.5451C14.6351 7.72751 14.723 7.70089 14.7978 7.65095C14.8726 7.60101 14.931 7.53 14.9654 7.44691C14.9998 7.36381 15.0088 7.27237 14.9912 7.18415C14.9737 7.09594 14.9303 7.01492 14.8667 6.95135Z" fill="white"/>
</g>
</svg>
