<svg width="20" height="21" viewBox="0 0 20 21" fill="none" xmlns="http://www.w3.org/2000/svg">
<g id="CaretDown">
<path id="Vector" d="M13.8934 9.56929L10.2573 12.9022C10.2235 12.9332 10.1834 12.9578 10.1392 12.9746C10.0951 12.9914 10.0478 13 10 13C9.95221 13 9.9049 12.9914 9.86076 12.9746C9.81661 12.9578 9.77651 12.9332 9.74274 12.9022L6.10656 9.56929C6.03833 9.50675 6 9.42193 6 9.33348C6 9.24504 6.03833 9.16021 6.10656 9.09767C6.17479 9.03513 6.26733 9 6.36382 9C6.46031 9 6.55285 9.03513 6.62108 9.09767L10 12.1952L13.3789 9.09767C13.4127 9.06671 13.4528 9.04214 13.497 9.02538C13.5411 9.00863 13.5884 9 13.6362 9C13.684 9 13.7313 9.00863 13.7754 9.02538C13.8195 9.04214 13.8597 9.06671 13.8934 9.09767C13.9272 9.12864 13.954 9.1654 13.9723 9.20586C13.9906 9.24632 14 9.28969 14 9.33348C14 9.37727 13.9906 9.42064 13.9723 9.4611C13.954 9.50156 13.9272 9.53832 13.8934 9.56929Z" fill="white" fill-opacity="0.7"/>
</g>
</svg>
