<svg width="24" height="24" viewBox="0 0 24 24" fill="none" xmlns="http://www.w3.org/2000/svg">
  <g id="vuesax/linear/element-2">
    <g id="vuesax/linear/element-2_2">
      <g id="element-2">
        <path id="Vector" d="M9.5 18.9V3.1C9.5 1.6 8.86 1 7.27 1H3.23C1.64 1 1 1.6 1 3.1V18.9C1 20.4 1.64 21 3.23 21H7.27C8.86 21 9.5 20.4 9.5 18.9Z" stroke="white" stroke-width="1.5" stroke-linecap="round" stroke-linejoin="round" />
        <path id="Vector_2" d="M21 7.52V2.98C21 1.57 20.36 1 18.77 1H14.73C13.14 1 12.5 1.57 12.5 2.98V7.51C12.5 8.93 13.14 9.49 14.73 9.49H18.77C20.36 9.5 21 8.93 21 7.52Z" stroke="white" stroke-width="1.5" stroke-linecap="round" stroke-linejoin="round" />
        <path id="Vector_3" d="M21 18.77V14.73C21 13.14 20.36 12.5 18.77 12.5H14.73C13.14 12.5 12.5 13.14 12.5 14.73V18.77C12.5 20.36 13.14 21 14.73 21H18.77C20.36 21 21 20.36 21 18.77Z" stroke="white" stroke-width="1.5" stroke-linecap="round" stroke-linejoin="round" />
      </g>
    </g>
  </g>
</svg>