<svg width="25" height="24" viewBox="0 0 25 24" fill="none" xmlns="http://www.w3.org/2000/svg">
<g id="Discord">
<path id="Vector" d="M19.7033 5.33716C18.3343 4.71103 16.8804 4.2547 15.3628 4C15.1718 4.32899 14.9595 4.77471 14.8109 5.12492C13.1968 4.89144 11.5943 4.89144 10.0025 5.12492C9.85387 4.77471 9.631 4.32899 9.45058 4C7.92241 4.2547 6.46851 4.71103 5.10905 5.33716C2.36043 9.39111 1.61756 13.3495 1.989 17.2549C3.81433 18.5815 5.57602 19.388 7.30691 19.9187C7.73141 19.3456 8.11346 18.73 8.44245 18.0827C7.81631 17.8492 7.22201 17.5627 6.64894 17.2231C6.79752 17.117 6.9461 17.0003 7.08406 16.8835C10.5437 18.4648 14.291 18.4648 17.7081 16.8835C17.8567 17.0003 17.9947 17.117 18.1433 17.2231C17.5702 17.5627 16.9759 17.8492 16.3498 18.0827C16.6788 18.73 17.0608 19.3456 17.4853 19.9187C19.2151 19.388 20.9874 18.5815 22.8032 17.2549C23.2595 12.7341 22.0805 8.80747 19.7033 5.33716ZM8.92 14.8459C7.87997 14.8459 7.03097 13.9014 7.03097 12.7447C7.03097 11.5879 7.85874 10.6434 8.92 10.6434C9.97061 10.6434 10.8302 11.5879 10.809 12.7447C10.809 13.9014 9.97061 14.8459 8.92 14.8459ZM15.8935 14.8459C14.8534 14.8459 14.0033 13.9014 14.0033 12.7447C14.0033 11.5879 14.8322 10.6434 15.8935 10.6434C16.9441 10.6434 17.8037 11.5879 17.7824 12.7447C17.7824 13.9014 16.9547 14.8459 15.8935 14.8459Z" fill="rgba(255,255,255,0.6)"/>
</g>
</svg>
