<svg width="56" height="56" viewBox="0 0 56 56" fill="none" xmlns="http://www.w3.org/2000/svg"
    preserveAspectRatio="none">
    <defs>
        <linearGradient id="bgGradient" x1="0" y1="0" x2="56" y2="56" gradientUnits="userSpaceOnUse">
            <stop offset="0%" stop-color="#9C6BFF" />
            <stop offset="100%" stop-color="#A678F8" />
        </linearGradient>
    </defs>
    <rect width="56" height="56" rx="12" fill="url(#bgGradient)" />
    <path fill-rule="evenodd" clip-rule="evenodd"
        d="M26.4986 20C25.9066 17.6997 23.8185 16 21.3333 16C18.3878 16 16 18.3878 16 21.3333C16 24.2789 18.3878 26.6667 21.3333 26.6667C23.8185 26.6667 25.9066 24.967 26.4986 22.6667H31.1111V27.1111H33.7778V22.6667H35.5556V27.1111H38.2222V22.6667H40V20H26.4986ZM24 21.3333C24 22.8061 22.8061 24 21.3333 24C19.8606 24 18.6667 22.8061 18.6667 21.3333C18.6667 19.8606 19.8606 18.6667 21.3333 18.6667C22.8061 18.6667 24 19.8606 24 21.3333Z"
        fill="white" />
    <path fill-rule="evenodd" clip-rule="evenodd"
        d="M29.5014 36C30.0934 38.3003 32.1815 40 34.6667 40C37.6122 40 40 37.6122 40 34.6667C40 31.7211 37.6122 29.3333 34.6667 29.3333C32.1815 29.3333 30.0934 31.033 29.5014 33.3333H24.8889V28.8889H22.2222V33.3333H20.4444V28.8889H17.7778V33.3333H16V36H29.5014ZM32 34.6667C32 33.1939 33.1939 32 34.6667 32C36.1394 32 37.3333 33.1939 37.3333 34.6667C37.3333 36.1394 36.1394 37.3333 34.6667 37.3333C33.1939 37.3333 32 36.1394 32 34.6667Z"
        fill="white" />
</svg>