<svg width="32" height="32" viewBox="0 0 32 32" fill="none" xmlns="http://www.w3.org/2000/svg">
<g id="Github">
<path id="Vector" d="M16.0013 2.6665C8.63464 2.6665 2.66797 8.63317 2.66797 15.9998C2.66797 21.8998 6.48464 26.8832 11.7846 28.6498C12.4513 28.7665 12.7013 28.3665 12.7013 28.0165C12.7013 27.6998 12.6846 26.6498 12.6846 25.5332C9.33464 26.1498 8.46797 24.7165 8.2013 23.9665C8.0513 23.5832 7.4013 22.3998 6.83464 22.0832C6.36797 21.8332 5.7013 21.2165 6.81797 21.1998C7.86797 21.1832 8.61797 22.1665 8.86797 22.5665C10.068 24.5832 11.9846 24.0165 12.7513 23.6665C12.868 22.7998 13.218 22.2165 13.6013 21.8832C10.6346 21.5498 7.53464 20.3998 7.53464 15.2998C7.53464 13.8498 8.0513 12.6498 8.9013 11.7165C8.76797 11.3832 8.3013 10.0165 9.03464 8.18317C9.03464 8.18317 10.1513 7.83317 12.7013 9.54984C13.768 9.24984 14.9013 9.09984 16.0347 9.09984C17.168 9.09984 18.3013 9.24984 19.368 9.54984C21.918 7.8165 23.0347 8.18317 23.0347 8.18317C23.768 10.0165 23.3013 11.3832 23.168 11.7165C24.018 12.6498 24.5347 13.8332 24.5347 15.2998C24.5347 20.4165 21.418 21.5498 18.4513 21.8832C18.9347 22.2998 19.3513 23.0998 19.3513 24.3498C19.3513 26.1332 19.3347 27.5665 19.3347 28.0165C19.3347 28.3665 19.5847 28.7832 20.2513 28.6498C25.6787 26.8176 29.3332 21.7282 29.3347 15.9998C29.3347 8.63317 23.368 2.6665 16.0013 2.6665Z" fill="rgba(255,255,255,0.6)"/>
</g>
</svg>
