<svg width="119" height="27" viewBox="0 0 119 27" fill="none" xmlns="http://www.w3.org/2000/svg">
<path d="M4.82497 0.00151095C7.02397 2.85088 10.3127 4.66432 13.7209 6.69991C16.0236 8.0751 16.2168 8.04336 17.5275 10.1681C17.0096 7.74188 17.5936 6.87143 17.9573 6.35686C17.5846 6.27753 16.7819 5.86119 16.5482 5.35645C16.8548 5.57557 17.5432 5.633 17.9731 5.43881C17.1389 5.16906 16.2416 4.39381 15.9891 3.49163C17.4072 4.75272 21.107 3.32993 22.0164 5.08897C23.1347 5.08897 23.9306 5.83852 24.2056 6.74373C22.6011 6.1657 21.2806 6.69311 20.9169 7.6361C20.5539 8.57908 21.0026 9.24326 21.8646 10.0215C22.6289 10.7137 24.5183 12.6231 24.9256 14.741C19.0906 13.0417 11.0507 8.60477 5.71855 4.52302C5.35556 2.89017 5.09327 1.34043 4.82422 0" fill="#E2491A"/>
<path d="M9.38086 13.668C13.3768 15.6782 18.631 17.7129 23.5858 18.7102C23.1192 19.1385 22.5767 19.4977 22.0373 19.8324C15.6254 19.3758 11.7877 16.8814 9.38086 13.668Z" fill="#E2491A"/>
<path d="M24.9253 16.2102C24.8623 16.7792 24.7046 17.2675 24.4771 17.6904C18.6631 16.5785 12.1831 13.8051 8.02623 11.4107C7.19952 9.8014 6.61233 8.10135 6.16406 6.43359C11.6717 10.4934 19.269 14.637 24.9253 16.211V16.2102Z" fill="#E2491A"/>
<path d="M13.4009 19.6669L3.64331 26.2667H0L12.606 18.5632C12.7588 18.4701 12.9494 18.4732 13.1022 18.5602C13.1082 18.5632 13.112 18.5663 13.115 18.5701C13.2678 18.6563 13.3661 18.8136 13.3691 18.9868V19.0891C13.3691 19.2814 13.379 19.4738 13.4009 19.6669Z" fill="#E2491A"/>
<path d="M14.2045 21.738L9.0992 26.2646H5.62793L13.658 20.3682C13.7743 20.8483 13.959 21.3092 14.2045 21.7387V21.738Z" fill="#E2491A"/>
<path d="M15.277 23.1337L13.2658 26.2664H10.7207L14.4745 22.2461C14.708 22.5683 14.9766 22.867 15.277 23.1337Z" fill="#E2491A"/>
<path d="M24.8708 26.8029C24.6306 26.1499 24.0372 25.7206 23.1235 25.629C22.9344 25.8279 22.2869 25.897 21.9307 25.6478C21.1001 25.7836 20.8599 25.4046 20.3695 25.5059C19.8791 25.6073 19.783 26.2723 20.0492 26.5815C18.8503 25.963 19.4917 24.7959 20.2002 24.7959C20.5945 24.7959 20.9026 25.0579 21.2771 24.9378C18.549 23.5432 16.8849 21.6759 16.4105 22.4925C15.5456 21.8703 14.9294 20.9328 14.7448 19.852C14.712 19.6606 14.9088 19.512 15.0911 19.5856C16.2785 20.0667 17.598 20.4532 19.0646 20.7227V20.7257C19.0066 20.7985 18.9136 20.8645 18.7694 20.9088C17.9839 21.161 18.231 22.2973 18.9395 22.7574C19.6671 23.2273 20.5426 23.8487 21.5715 24.3756C22.3791 24.871 22.8856 24.4199 23.2738 24.8207C24.2614 24.3381 25.1621 25.8084 24.87 26.8021L24.8708 26.8029Z" fill="#E2491A"/>
<path d="M31.626 25.1943V6.16504H35.3646C36.1032 6.16504 36.7037 6.29187 37.1659 6.54309C37.6282 6.79431 37.9808 7.15772 38.2287 7.63577C38.4741 8.11138 38.6433 8.68455 38.729 9.35528C38.8172 10.026 38.8625 10.7772 38.8625 11.6163V11.9065C38.8625 13.1821 38.7648 14.2529 38.5718 15.1187C38.3788 15.9846 38.0285 16.6333 37.5257 17.0699C37.023 17.5065 36.3034 17.7236 35.3646 17.7236H33.811V25.1943H31.626ZM33.811 15.8651H35.1406C35.5695 15.8651 35.8935 15.7407 36.1127 15.4919C36.3296 15.2431 36.4797 14.8309 36.5607 14.2553C36.6417 13.6797 36.6822 12.8968 36.6822 11.909V11.5407C36.6822 10.3163 36.5917 9.40894 36.4082 8.82114C36.2247 8.23333 35.8197 7.94065 35.193 7.94065H33.8086V15.8651H33.811Z" fill="white"/>
<path d="M45.5625 25.1943V6.16504H47.7932V14.3065H50.8339V6.16504H53.067V25.1943H50.8339V16.1334H47.7932V25.1943H45.5625Z" fill="white"/>
<path d="M64.0766 25.4618C63.1279 25.4618 62.3787 25.2512 61.8289 24.8323C61.2792 24.4135 60.8875 23.7791 60.654 22.9341C60.4205 22.0866 60.3037 21.0261 60.3037 19.7524V11.3267C60.3037 10.2269 60.4107 9.27168 60.6272 8.46095C60.8437 7.65022 61.2281 7.02073 61.7803 6.57005C62.3349 6.12182 63.1182 5.89648 64.1302 5.89648C64.8916 5.89648 65.5143 6.0263 65.996 6.28348C66.4776 6.54067 66.8498 6.90561 67.1125 7.38078C67.3752 7.85351 67.5577 8.4242 67.6574 9.09042C67.7571 9.75664 67.8082 10.5012 67.8082 11.3267V19.7524C67.8082 21.0261 67.6939 22.0866 67.4677 22.9341C67.2414 23.7816 66.8571 24.4135 66.3146 24.8323C65.7722 25.2512 65.0253 25.4618 64.0766 25.4618ZM64.0766 23.5293C64.4853 23.5293 64.7991 23.4117 65.0156 23.1766C65.2321 22.9414 65.3781 22.5495 65.4583 21.9984C65.5386 21.4498 65.5775 20.7052 65.5775 19.7745V11.1969C65.5775 10.053 65.4875 9.20555 65.3075 8.65444C65.1275 8.10579 64.7359 7.82902 64.1326 7.82902C63.5293 7.82902 63.0842 8.10334 62.8652 8.64709C62.6463 9.19329 62.5368 10.0408 62.5368 11.1822V19.7696C62.5368 20.7101 62.5757 21.4547 62.656 22.0009C62.7363 22.5471 62.8871 22.939 63.1085 23.1741C63.3298 23.4093 63.6534 23.5268 64.0791 23.5268L64.0766 23.5293Z" fill="white"/>
<path d="M75.0449 25.1943V6.16504H80.6302V8.02358H77.2436V14.5334H80.4506V16.3919H77.2436V23.3334H80.6733V25.1919H75.0473L75.0449 25.1943Z" fill="white"/>
<path d="M87.6416 25.1919V6.16504H89.3125L93.6805 19.1171L93.4559 13.6153V6.16748H95.4141V25.1943H93.7867L89.5588 12.135L89.6867 16.9368V25.1943H87.6416V25.1919Z" fill="white"/>
<path d="M102.919 25.1943V6.16504H105.063V25.1943H102.919Z" fill="white"/>
<path d="M111.498 25.1943L114.177 15.1187L111.584 6.16504H113.506L115.335 12.5016L116.938 6.16504H118.913L116.322 15.9285L119 25.1943H117.087L115.184 18.6211L113.504 25.1943H111.495H111.498Z" fill="white"/>
</svg>
