<svg width="24" height="24" viewBox="0 0 24 24" fill="none" xmlns="http://www.w3.org/2000/svg">
<path d="M14.2495 12.6752C13.8213 12.6796 13.3974 12.5891 13.0084 12.4102C12.6193 12.2312 12.2748 11.9682 11.9995 11.6402C11.7222 11.9659 11.3772 12.2272 10.9887 12.4059C10.6001 12.5846 10.1772 12.6765 9.74949 12.6752C9.32128 12.6796 8.89741 12.5891 8.50836 12.4102C8.11931 12.2312 7.77476 11.9682 7.49949 11.6402C7.41652 11.7397 7.32627 11.833 7.22949 11.9192C6.9265 12.1949 6.56851 12.4032 6.17912 12.5304C5.78973 12.6576 5.3778 12.7008 4.97049 12.6572C4.2333 12.5664 3.55557 12.2066 3.06728 11.6469C2.57898 11.0872 2.31448 10.3669 2.32449 9.6242V8.9852C2.32376 8.52653 2.39669 8.07073 2.54049 7.6352L3.95349 3.4052C4.05749 3.09105 4.2578 2.81764 4.52598 2.62378C4.79415 2.42992 5.11658 2.32545 5.44749 2.3252H18.5515C18.8824 2.32545 19.2048 2.42992 19.473 2.62378C19.7412 2.81764 19.9415 3.09105 20.0455 3.4052L21.4585 7.6352C21.6023 8.07073 21.6752 8.52653 21.6745 8.9852V9.6242C21.685 10.3642 21.423 11.0822 20.9384 11.6415C20.4538 12.2008 19.7804 12.5623 19.0465 12.6572C18.6391 12.702 18.2269 12.6593 17.8373 12.5321C17.4478 12.4048 17.0898 12.1959 16.7875 11.9192C16.6885 11.8292 16.5895 11.7212 16.4995 11.6222C16.2235 11.9507 15.8792 12.215 15.4907 12.3969C15.1021 12.5788 14.6785 12.6737 14.2495 12.6752ZM5.44749 3.6752C5.40025 3.67591 5.35433 3.69091 5.31578 3.71822C5.27723 3.74553 5.24784 3.78387 5.23149 3.8282L3.82749 8.0582C3.72999 8.34841 3.67837 8.65206 3.67449 8.9582V9.5972C3.66129 10.0035 3.79799 10.4004 4.05855 10.7125C4.31912 11.0245 4.68535 11.2298 5.08749 11.2892C5.30452 11.3117 5.52385 11.2888 5.73158 11.2221C5.93931 11.1553 6.1309 11.0461 6.29421 10.9014C6.45752 10.7567 6.58899 10.5797 6.68027 10.3815C6.77155 10.1833 6.82067 9.96835 6.82449 9.7502C6.82449 9.57117 6.89561 9.39949 7.0222 9.2729C7.14878 9.14631 7.32047 9.0752 7.49949 9.0752C7.67851 9.0752 7.8502 9.14631 7.97679 9.2729C8.10338 9.39949 8.17449 9.57117 8.17449 9.7502C8.16419 9.95975 8.19787 10.1691 8.27338 10.3649C8.34888 10.5607 8.46454 10.7384 8.6129 10.8868C8.76126 11.0351 8.93903 11.1508 9.13479 11.2263C9.33054 11.3018 9.53993 11.3355 9.74949 11.3252C10.1665 11.3228 10.5657 11.1561 10.8606 10.8613C11.1554 10.5664 11.3221 10.1672 11.3245 9.7502C11.3245 9.57117 11.3956 9.39949 11.5222 9.2729C11.6488 9.14631 11.8205 9.0752 11.9995 9.0752C12.1785 9.0752 12.3502 9.14631 12.4768 9.2729C12.6034 9.39949 12.6745 9.57117 12.6745 9.7502C12.6642 9.95975 12.6979 10.1691 12.7734 10.3649C12.8489 10.5607 12.9645 10.7384 13.1129 10.8868C13.2613 11.0351 13.439 11.1508 13.6348 11.2263C13.8305 11.3018 14.0399 11.3355 14.2495 11.3252C14.6665 11.3228 15.0657 11.1561 15.3606 10.8613C15.6554 10.5664 15.8221 10.1672 15.8245 9.7502C15.8245 9.57117 15.8956 9.39949 16.0222 9.2729C16.1488 9.14631 16.3205 9.0752 16.4995 9.0752C16.6785 9.0752 16.8502 9.14631 16.9768 9.2729C17.1034 9.39949 17.1745 9.57117 17.1745 9.7502C17.1746 9.97064 17.2209 10.1886 17.3106 10.39C17.4002 10.5914 17.5311 10.7717 17.6949 10.9193C17.8586 11.0669 18.0515 11.1785 18.2611 11.2469C18.4706 11.3153 18.6922 11.3389 18.9115 11.3162C19.3136 11.2568 19.6799 11.0515 19.9404 10.7395C20.201 10.4275 20.3377 10.0305 20.3245 9.6242V8.9852C20.3206 8.67906 20.269 8.37541 20.1715 8.0852L18.7675 3.8552C18.7511 3.81087 18.7218 3.77253 18.6832 3.74522C18.6447 3.71791 18.5987 3.70291 18.5515 3.7022L5.44749 3.6752Z" fill="white"/>
<path d="M19.1996 21.6751H4.79961C4.38262 21.6728 3.98339 21.5061 3.68853 21.2112C3.39367 20.9164 3.22697 20.5171 3.22461 20.1001V11.5321C3.22461 11.3531 3.29573 11.1814 3.42231 11.0548C3.5489 10.9283 3.72059 10.8571 3.89961 10.8571C4.07863 10.8571 4.25032 10.9283 4.37691 11.0548C4.50349 11.1814 4.57461 11.3531 4.57461 11.5321V20.1001C4.57461 20.1598 4.59831 20.217 4.64051 20.2592C4.68271 20.3014 4.73994 20.3251 4.79961 20.3251H19.1996C19.2593 20.3251 19.3165 20.3014 19.3587 20.2592C19.4009 20.217 19.4246 20.1598 19.4246 20.1001V11.5231C19.4246 11.3441 19.4957 11.1724 19.6223 11.0458C19.7489 10.9193 19.9206 10.8481 20.0996 10.8481C20.2786 10.8481 20.4503 10.9193 20.5769 11.0458C20.7035 11.1724 20.7746 11.3441 20.7746 11.5231V20.1001C20.7722 20.5171 20.6056 20.9164 20.3107 21.2112C20.0158 21.5061 19.6166 21.6728 19.1996 21.6751Z" fill="white"/>
<path d="M15.1488 21.6753H8.84883C8.67053 21.673 8.50019 21.6011 8.37411 21.475C8.24802 21.3489 8.17616 21.1786 8.17383 21.0003V16.5003C8.17619 16.0833 8.34289 15.6841 8.63775 15.3892C8.9326 15.0944 9.33184 14.9277 9.74883 14.9253H14.2488C14.6658 14.9277 15.0651 15.0944 15.3599 15.3892C15.6548 15.6841 15.8215 16.0833 15.8238 16.5003V21.0003C15.8215 21.1786 15.7496 21.3489 15.6235 21.475C15.4975 21.6011 15.3271 21.673 15.1488 21.6753ZM9.52383 20.3253H14.4738V16.5003C14.4738 16.4406 14.4501 16.3834 14.4079 16.3412C14.3657 16.299 14.3085 16.2753 14.2488 16.2753H9.74883C9.68915 16.2753 9.63192 16.299 9.58973 16.3412C9.54753 16.3834 9.52383 16.4406 9.52383 16.5003V20.3253Z" fill="white"/>
</svg>
