<svg width="185" height="174" viewBox="0 0 185 174" fill="none" xmlns="http://www.w3.org/2000/svg">
<path d="M92.429 156.063C135.266 156.063 169.992 121.337 169.992 78.5001C169.992 35.6633 135.266 0.937256 92.429 0.937256C49.5923 0.937256 14.8662 35.6633 14.8662 78.5001C14.8662 121.337 49.5923 156.063 92.429 156.063Z" fill="#3C3F40"/>
<g opacity="0.1" filter="url(#filter0_d_338_4472)">
<rect x="53.001" y="23.2729" width="80.4954" height="100.204" rx="16" fill="white"/>
</g>
<rect x="60.1113" y="36.2002" width="50" height="1.24183" rx="0.620916" fill="#E2491A"/>
<rect opacity="0.2" x="60.1113" y="55.4421" width="64.6357" height="1.24183" rx="0.620916" fill="#D5D5D5"/>
<rect opacity="0.2" x="60.1113" y="74.6838" width="64.6357" height="1.24183" rx="0.620916" fill="#D5D5D5"/>
<rect opacity="0.2" x="60.1113" y="93.9257" width="64.6357" height="1.24183" rx="0.620916" fill="#D5D5D5"/>
<rect opacity="0.2" x="60.1113" y="113.167" width="64.6357" height="1.24183" rx="0.620916" fill="#D5D5D5"/>
<path d="M181.722 12.1995H142.889C141.079 12.1995 139.612 13.7433 139.612 15.6477V34.8569C139.612 36.7613 141.079 38.3051 142.889 38.3051H181.722C183.532 38.3051 184.999 36.7613 184.999 34.8569V15.6477C184.999 13.7433 183.532 12.1995 181.722 12.1995Z" fill="#575B5E"/>
<path d="M149.308 29.3769C151.45 29.3769 153.186 27.6406 153.186 25.4987C153.186 23.3569 151.45 21.6206 149.308 21.6206C147.166 21.6206 145.43 23.3569 145.43 25.4987C145.43 27.6406 147.166 29.3769 149.308 29.3769Z" fill="#E2491A"/>
<rect x="158.356" y="21.6206" width="20.6834" height="7.75628" rx="3.87814" fill="#878787"/>
<path fill-rule="evenodd" clip-rule="evenodd" d="M115.121 127.987C123.446 127.987 131.183 125.469 137.611 121.153L163.918 146.265L173.458 135.196L148.074 110.964C152.762 104.366 155.518 96.3001 155.518 87.5902C155.518 65.2794 137.432 47.1929 115.121 47.1929C92.8101 47.1929 74.7236 65.2794 74.7236 87.5902C74.7236 109.901 92.8101 127.987 115.121 127.987ZM149.578 87.5902C149.578 106.479 134.266 121.791 115.377 121.791C96.4884 121.791 81.1762 106.479 81.1762 87.5902C81.1762 68.7016 96.4884 53.3893 115.377 53.3893C134.266 53.3893 149.578 68.7016 149.578 87.5902Z" fill="#CCC6D9"/>
<g filter="url(#filter1_b_338_4472)">
<path d="M115.374 122.453C134.829 122.453 150.6 106.826 150.6 87.5493C150.6 68.2727 134.829 52.646 115.374 52.646C95.9189 52.646 80.1475 68.2727 80.1475 87.5493C80.1475 106.826 95.9189 122.453 115.374 122.453Z" fill="white" fill-opacity="0.3"/>
</g>
<path d="M121.465 87.5491L129.989 79.0573C130.788 78.2172 131.225 77.1007 131.209 75.9451C131.193 74.7894 130.723 73.6857 129.901 72.8684C129.079 72.0512 127.968 71.5848 126.806 71.5684C125.643 71.5521 124.519 71.987 123.674 72.7808L115.13 81.2725L106.606 72.7808C106.196 72.3493 105.702 72.0039 105.156 71.7651C104.609 71.5264 104.019 71.399 103.422 71.3906C102.825 71.3822 102.232 71.4929 101.679 71.7162C101.125 71.9395 100.622 72.2708 100.2 72.6906C99.7777 73.1103 99.4443 73.61 99.2196 74.1601C98.995 74.7101 98.8836 75.2994 98.892 75.893C98.9005 76.4866 99.0287 77.0724 99.2689 77.616C99.5091 78.1595 99.8566 78.6496 100.291 79.0573L108.83 87.5491L100.291 96.0408C99.8566 96.4485 99.5091 96.9386 99.2689 97.4821C99.0287 98.0257 98.9005 98.6115 98.892 99.2051C98.8836 99.7987 98.995 100.388 99.2196 100.938C99.4443 101.488 99.7777 101.988 100.2 102.408C100.622 102.827 101.125 103.159 101.679 103.382C102.232 103.605 102.825 103.716 103.422 103.708C104.019 103.699 104.609 103.572 105.156 103.333C105.702 103.094 106.196 102.749 106.606 102.317L115.15 93.8256L123.693 102.317C124.547 103.064 125.654 103.46 126.791 103.423C127.927 103.387 129.007 102.921 129.809 102.12C130.612 101.32 131.078 100.246 131.111 99.116C131.145 97.9864 130.743 96.8866 129.989 96.0408L121.465 87.5491Z" fill="#E2491A"/>
<path d="M163.916 146.266L173.456 135.197L174.893 136.569C176.288 137.899 177.122 139.759 177.214 141.737C177.306 143.716 176.647 145.652 175.382 147.119V147.119C174.117 148.587 172.351 149.465 170.47 149.561C168.59 149.658 166.751 148.964 165.357 147.633L163.92 146.262L163.916 146.266Z" fill="#E1DCEB"/>
<path fill-rule="evenodd" clip-rule="evenodd" d="M31.8747 41.1223C31.8625 40.2006 31.7469 39.2709 31.5157 38.3349C30.7047 35.05 27.0865 32.9412 23.2355 32.4453C19.386 31.9495 15.3828 33.0778 13.84 35.9352C12.9575 37.5689 12.8358 38.9769 13.1964 40.164C13.5555 41.3448 14.4075 42.3237 15.5638 43.0865C18.788 45.2112 24.4345 45.6451 27.0104 44.7567C28.2018 44.3451 29.3657 43.8493 30.4992 43.282C29.8511 46.9959 27.4364 50.5143 24.2138 53.6848C17.2102 60.5754 6.34185 65.8054 0.423081 67.7283C0.10508 67.8316 -0.0714329 68.1844 0.0274668 68.5165C0.126367 68.8487 0.464141 69.0346 0.782142 68.9313C6.81807 66.9703 17.8979 61.6291 25.04 54.6017C28.7297 50.972 31.3589 46.8862 31.8078 42.5907C40.1488 37.936 46.9988 29.4911 52.8552 22.3843C53.0728 22.1221 53.0439 21.7232 52.7913 21.4959C52.5387 21.2703 52.1583 21.2988 51.9407 21.5626C46.3232 28.3786 39.8034 36.4866 31.8747 41.1223ZM30.6621 41.7977C30.7077 40.7615 30.6103 39.7095 30.3471 38.6479C29.6457 35.8049 26.4215 34.1235 23.0879 33.6945C21.0444 33.4322 18.9432 33.6484 17.2954 34.4175C16.2592 34.9007 15.4056 35.6015 14.8913 36.555C14.2158 37.8057 14.0697 38.8752 14.3466 39.7826C14.6235 40.6964 15.3113 41.4306 16.2075 42.0202C19.1456 43.9574 24.2868 44.369 26.6315 43.5601C28.0146 43.0833 29.3566 42.489 30.6621 41.7977Z" fill="#E2491A"/>
<circle cx="179.687" cy="101.123" r="3.87814" fill="#E2491A"/>
<path fill-rule="evenodd" clip-rule="evenodd" d="M33.2125 127.878C33.9046 127.618 34.6329 127.273 35.1945 126.774C35.8616 126.181 36.1329 125.417 36.315 124.613C36.5489 123.58 36.6424 122.479 36.926 121.444C37.031 121.06 37.2331 120.915 37.3198 120.85C37.5389 120.688 37.7605 120.644 37.9689 120.66C38.2159 120.679 38.5552 120.778 38.7783 121.213C38.8102 121.276 38.8515 121.371 38.8794 121.501C38.8996 121.596 38.9128 121.895 38.9342 122.018C38.9879 122.321 39.0329 122.624 39.0751 122.929C39.2155 123.943 39.2962 124.804 39.7397 125.736C40.3415 127.001 40.9445 127.775 41.7623 128.118C42.5531 128.45 43.4985 128.387 44.7065 128.127C44.8215 128.098 44.9352 128.073 45.0478 128.052C45.5804 127.954 46.0895 128.322 46.1941 128.881C46.2987 129.439 45.9603 129.983 45.4324 130.105C45.3223 130.131 45.2137 130.155 45.1063 130.177C43.4739 130.602 41.5841 132.12 40.4859 133.449C40.1474 133.859 39.6518 135.005 39.1463 135.736C38.7732 136.275 38.3539 136.63 38.0019 136.756C37.766 136.84 37.5672 136.828 37.4029 136.785C37.1642 136.723 36.9662 136.587 36.8142 136.37C36.7315 136.252 36.6547 136.093 36.6181 135.891C36.6006 135.793 36.5986 135.545 36.599 135.433C36.496 135.06 36.3699 134.696 36.278 134.32C36.0589 133.422 35.6289 132.853 35.1182 132.102C34.6405 131.4 34.1274 130.958 33.3752 130.605C33.2774 130.58 32.4878 130.377 32.209 130.26C31.8017 130.089 31.6076 129.802 31.5372 129.648C31.4174 129.386 31.4051 129.157 31.429 128.966C31.4644 128.684 31.5845 128.443 31.7977 128.248C31.9297 128.127 32.127 128.01 32.3912 127.952C32.5952 127.908 33.1365 127.882 33.2125 127.878ZM37.8444 126.414C37.881 126.5 37.92 126.586 37.9613 126.674C38.8428 128.526 39.8284 129.561 41.0265 130.063L41.0666 130.079C40.2652 130.705 39.5396 131.405 38.9852 132.076C38.7568 132.352 38.4546 132.926 38.128 133.515C37.8313 132.5 37.346 131.782 36.7359 130.884C36.2697 130.199 35.7812 129.683 35.181 129.263C35.6468 129.011 36.0911 128.717 36.4781 128.373C37.1225 127.8 37.5485 127.136 37.8444 126.414Z" fill="#E2491A"/>
<defs>
<filter id="filter0_d_338_4472" x="23.001" y="13.2729" width="140.495" height="160.204" filterUnits="userSpaceOnUse" color-interpolation-filters="sRGB">
<feFlood flood-opacity="0" result="BackgroundImageFix"/>
<feColorMatrix in="SourceAlpha" type="matrix" values="0 0 0 0 0 0 0 0 0 0 0 0 0 0 0 0 0 0 127 0" result="hardAlpha"/>
<feOffset dy="20"/>
<feGaussianBlur stdDeviation="15"/>
<feComposite in2="hardAlpha" operator="out"/>
<feColorMatrix type="matrix" values="0 0 0 0 0.570833 0 0 0 0 0.570833 0 0 0 0 0.570833 0 0 0 0.19 0"/>
<feBlend mode="normal" in2="BackgroundImageFix" result="effect1_dropShadow_338_4472"/>
<feBlend mode="normal" in="SourceGraphic" in2="effect1_dropShadow_338_4472" result="shape"/>
</filter>
<filter id="filter1_b_338_4472" x="72.1475" y="44.646" width="86.4531" height="85.8065" filterUnits="userSpaceOnUse" color-interpolation-filters="sRGB">
<feFlood flood-opacity="0" result="BackgroundImageFix"/>
<feGaussianBlur in="BackgroundImageFix" stdDeviation="4"/>
<feComposite in2="SourceAlpha" operator="in" result="effect1_backgroundBlur_338_4472"/>
<feBlend mode="normal" in="SourceGraphic" in2="effect1_backgroundBlur_338_4472" result="shape"/>
</filter>
</defs>
</svg>
