<svg width="25" height="24" viewBox="0 0 25 24" fill="none" xmlns="http://www.w3.org/2000/svg">
<g id="Telegram ">
<path id="Vector" d="M12.4009 22C6.87803 22 2.40088 17.5228 2.40088 12C2.40088 6.47715 6.87803 2 12.4009 2C17.9237 2 22.4009 6.47715 22.4009 12C22.4009 17.5228 17.9237 22 12.4009 22ZM9.29103 13.1708L9.30368 13.1628C9.88341 15.0767 10.1733 16.0337 10.1733 16.0337C10.2855 16.3442 10.4399 16.3996 10.6272 16.3743C10.8144 16.3489 10.9138 16.2476 11.036 16.1297C11.036 16.1297 11.4323 15.7472 12.2249 14.9823L14.7758 16.8698C15.2406 17.1266 15.5762 16.9941 15.6916 16.4377L17.3494 8.61641C17.5324 7.88842 17.2114 7.59644 16.6469 7.82754L6.91387 11.5871C6.24986 11.854 6.25307 12.2255 6.79298 12.3911L9.29103 13.1708Z" fill="rgba(255,255,255,0.6)"/>
</g>
</svg>
