<svg width="24" height="24" viewBox="0 0 24 24" fill="none" xmlns="http://www.w3.org/2000/svg">
    <g clip-path="url(#clip0_1069_2616)">
        <path opacity="0.4"
            d="M3.62162 10.4865C2.72432 10.4865 2 11.2108 2 12.1081C2 13.0054 2.72432 13.7297 3.62162 13.7297C4.51892 13.7297 5.24324 13.0054 5.24324 12.1081C5.24324 11.2108 4.51892 10.4865 3.62162 10.4865ZM3.62162 4C2.72432 4 2 4.72432 2 5.62162C2 6.51892 2.72432 7.24324 3.62162 7.24324C4.51892 7.24324 5.24324 6.51892 5.24324 5.62162C5.24324 4.72432 4.51892 4 3.62162 4ZM3.62162 16.973C2.72432 16.973 2 17.7081 2 18.5946C2 19.4811 2.73514 20.2162 3.62162 20.2162C4.50811 20.2162 5.24324 19.4811 5.24324 18.5946C5.24324 17.7081 4.51892 16.973 3.62162 16.973ZM7.94595 19.6757H20.9189C21.5135 19.6757 22 19.1892 22 18.5946C22 18 21.5135 17.5135 20.9189 17.5135H7.94595C7.35135 17.5135 6.86486 18 6.86486 18.5946C6.86486 19.1892 7.35135 19.6757 7.94595 19.6757ZM7.94595 13.1892H20.9189C21.5135 13.1892 22 12.7027 22 12.1081C22 11.5135 21.5135 11.027 20.9189 11.027H7.94595C7.35135 11.027 6.86486 11.5135 6.86486 12.1081C6.86486 12.7027 7.35135 13.1892 7.94595 13.1892ZM6.86486 5.62162C6.86486 6.21622 7.35135 6.7027 7.94595 6.7027H20.9189C21.5135 6.7027 22 6.21622 22 5.62162C22 5.02703 21.5135 4.54054 20.9189 4.54054H7.94595C7.35135 4.54054 6.86486 5.02703 6.86486 5.62162Z"
            fill="white" />
    </g>
    <defs>
        <clipPath id="clip0_1069_2616">
            <rect width="24" height="24" fill="white" />
        </clipPath>
    </defs>
</svg>