<svg width="100" height="100" viewBox="0 0 100 100" fill="none" xmlns="http://www.w3.org/2000/svg">
<circle cx="50" cy="50" r="49.5" fill="#FF9922" fill-opacity="0.2" stroke="#FF9922"/>
<path d="M35.8227 62.7499H62.1777C64.8727 62.7499 66.5527 59.8274 65.2052 57.4999L52.0277 34.7324C50.6802 32.4049 47.3202 32.4049 45.9727 34.7324L32.7952 57.4999C31.4477 59.8274 33.1277 62.7499 35.8227 62.7499ZM49.0002 50.4999C48.0377 50.4999 47.2502 49.7124 47.2502 48.7499V45.2499C47.2502 44.2874 48.0377 43.4999 49.0002 43.4999C49.9627 43.4999 50.7502 44.2874 50.7502 45.2499V48.7499C50.7502 49.7124 49.9627 50.4999 49.0002 50.4999ZM50.7502 57.4999H47.2502V53.9999H50.7502V57.4999Z" fill="white"/>
</svg>
