<svg width="42" height="42" viewBox="0 0 42 42" fill="none" xmlns="http://www.w3.org/2000/svg">
<path d="M7.82271 36.7499H34.1777C36.8727 36.7499 38.5527 33.8274 37.2052 31.4999L24.0277 8.73244C22.6802 6.40494 19.3202 6.40494 17.9727 8.73244L4.79521 31.4999C3.44771 33.8274 5.12771 36.7499 7.82271 36.7499ZM21.0002 24.4999C20.0377 24.4999 19.2502 23.7124 19.2502 22.7499V19.2499C19.2502 18.2874 20.0377 17.4999 21.0002 17.4999C21.9627 17.4999 22.7502 18.2874 22.7502 19.2499V22.7499C22.7502 23.7124 21.9627 24.4999 21.0002 24.4999ZM22.7502 31.4999H19.2502V27.9999H22.7502V31.4999Z" fill="white"/>
</svg>
