<svg width="24" height="25" viewBox="0 0 24 25" fill="none" xmlns="http://www.w3.org/2000/svg">
<g id="X">
<path id="Vector" d="M15.8828 15.9799C15.9199 16.0171 15.9494 16.0612 15.9695 16.1097C15.9896 16.1583 16 16.2103 16 16.2629C16 16.3154 15.9896 16.3675 15.9695 16.416C15.9494 16.4646 15.9199 16.5087 15.8828 16.5459C15.8456 16.583 15.8015 16.6125 15.7529 16.6326C15.7044 16.6527 15.6524 16.6631 15.5998 16.6631C15.5472 16.6631 15.4952 16.6527 15.4466 16.6326C15.3981 16.6125 15.354 16.583 15.3168 16.5459L12 13.2286L8.68318 16.5459C8.60813 16.6209 8.50634 16.6631 8.4002 16.6631C8.29406 16.6631 8.19227 16.6209 8.11722 16.5459C8.04216 16.4708 8 16.369 8 16.2629C8 16.1567 8.04216 16.055 8.11722 15.9799L11.4345 12.6631L8.11722 9.34627C8.04216 9.27122 8 9.16943 8 9.06329C8 8.95715 8.04216 8.85535 8.11722 8.7803C8.19227 8.70525 8.29406 8.66309 8.4002 8.66309C8.50634 8.66309 8.60813 8.70525 8.68318 8.7803L12 12.0976L15.3168 8.7803C15.3919 8.70525 15.4937 8.66309 15.5998 8.66309C15.7059 8.66309 15.8077 8.70525 15.8828 8.7803C15.9578 8.85535 16 8.95715 16 9.06329C16 9.16943 15.9578 9.27122 15.8828 9.34627L12.5655 12.6631L15.8828 15.9799Z" fill="white" fill-opacity="0.7"/>
</g>
</svg>
