<svg id="Layer_1" data-name="Layer 1" xmlns="http://www.w3.org/2000/svg" viewBox="0 0 300 300"><defs><style>.cls-1{fill:#24a338;}.cls-2{fill:#f0f1f1;}</style></defs><path class="cls-1" d="M48.16,127.19A51.41,51.41,0,0,1,35,103.59c-2.92-11.64.2-22,7.78-31.06A57.05,57.05,0,0,1,57.17,60.62l1.37-.85c-1.31-2.71-2.57-5.37-3.88-8A22.54,22.54,0,0,1,52,40.38c.34-5.82,3.12-10.36,7.55-14a29.05,29.05,0,0,1,9.67-5q26.27-8.49,52.55-17A63,63,0,0,1,131.93,1.6a19.49,19.49,0,0,1,22.27,17c.46,3.39,1.07,6.76,1.6,10,2.83,0,5.56-.12,8.27,0a60,60,0,0,1,17.56,3.14c10.12,3.68,16.68,10.71,19.77,21a64.21,64.21,0,0,1,2.83,19c0,1.93-.3,3.86-.46,5.75,2.59,1.26,5.19,2.45,7.73,3.78a46.13,46.13,0,0,1,23,27c2.91,8.54,5.62,17.14,8.36,25.73q11.22,35.17,22.37,70.36a41.35,41.35,0,0,1,.42,22.5c-3,12.22-8.91,22.71-18.7,30.78-6,4.95-13,8.19-20.32,10.63-12.77,4.25-25.6,8.3-38.42,12.41q-23.38,7.5-46.79,14.94a77.28,77.28,0,0,1-17.5,3.64,48.33,48.33,0,0,1-13-1,56.3,56.3,0,0,1-16.12-5.79c-12.53-6.77-20.77-16.93-25-30.65C62,236.65,53.8,211.54,45.7,186.4a177.41,177.41,0,0,1-5.61-19.6c-2.79-14.05-.39-27.05,7.67-39Zm27-5.8c-.84,1.15-1.55,2.23-2.38,3.22-2.81,3.32-5.79,6.52-8.47,9.94-7.94,10.1-10.38,21.29-6.31,33.67,2.86,8.7,5.76,17.39,8.55,26.11,7,21.9,13.95,43.82,21,65.7a24.57,24.57,0,0,0,3.16,6.59A35,35,0,0,0,101,276c10.38,6.44,21.44,7.42,33,3.8,11.17-3.5,22.29-7.14,33.44-10.71q26.1-8.36,52.21-16.69c4.85-1.56,9.64-3.3,13.89-6.22,8-5.46,12.52-13.19,15-22.34,1.31-4.88,1.68-9.67.1-14.62q-15.25-47.64-30.38-95.34a27.58,27.58,0,0,0-8.1-12.58c-5.61-5-12.25-7.89-19.45-9.66-3.46-.85-6.93-1.64-10.4-2.44-1-.23-1.89-.88-1.82-1.81.09-1.28-.26-2.88,1.27-3.71,5.46-3,7.59-7.77,7.06-13.68a95.31,95.31,0,0,0-2.19-12.27c-1.19-5.33-4.67-8.57-9.85-10.08a48.47,48.47,0,0,0-20.78-1.19c-1.46.22-2.92.48-4.37.8s-1.89,1-1.43,2.43l.48,1.45c.84,2.57.84,2.56,3.59,2.26a8.81,8.81,0,0,1,5.17.58c1.15.58,1.39,1.59.46,2.43a13.67,13.67,0,0,1-3.22,2.39c-8.87,4.06-17.69,8.27-26.72,12A192.14,192.14,0,0,1,87.72,82c-4.2.73-8.41,1.34-12.64,1.88a7.47,7.47,0,0,1-3-.51c-1-.3-1.33-1.09-.59-1.9a22.07,22.07,0,0,1,3-2.79c1-.76,2.25-1.27,3.33-2,.3-.2.64-.79.55-1-.62-1.73-1.34-3.42-2.06-5.18-.37.12-.63.2-.88.3a67.92,67.92,0,0,0-12,6.41,38,38,0,0,0-8.78,8C51.54,89.43,50,94.1,51.6,99.31a37.31,37.31,0,0,0,8.22,15,12.13,12.13,0,0,0,9.87,4.24A4.62,4.62,0,0,1,74,120.31,13.27,13.27,0,0,0,75.15,121.39ZM134.62,18.84c-.72.17-1.45.3-2.14.52L72.07,38.91a7.53,7.53,0,0,0-1.64.73c-1.35.84-1.51,1.48-.82,2.87Q73.8,51,78,59.43q3.39,6.84,6.78,13.68a3,3,0,0,0,3.5,1.81c2.35-.47,4.69-1,7-1.64,14.38-3.86,28.46-8.68,42.47-13.68,1.59-.57,3.58-.88,3.73-3.21,0-.07.12-.14.19-.2.86-.68.79-1.53.62-2.51-1-5.82-1.95-11.66-2.93-17.48-.86-5.15-1.71-10.3-2.6-15.44C136.49,19.28,136.06,19,134.62,18.84Z"/><path class="cls-1" d="M210.69,133c.93,2.85,1.79,5.43,2.62,8,4.49,14,9,28,13.42,42,2,6.34,4,12.71,5.6,19.16a35.69,35.69,0,0,1,.34,18.27c-2.27,8.41-7.66,14.19-15.34,18-8.07,4-16.61,6.77-25.16,9.49q-23.67,7.51-47.35,15a77.75,77.75,0,0,1-20.61,3.45c-7.84.26-14.41-2.84-19.74-8.59a42.74,42.74,0,0,1-8.56-15c-3-8.48-5.92-17-8.79-25.57C83.33,206,79.7,194.64,75.8,183.37a11.21,11.21,0,0,1,.7-9c2-4.18,5.21-7.28,8.82-10,1.4-1.06,2.87-2,4.3-3,3.1-2.22,4.83-7.65,3.6-11.23a6.24,6.24,0,0,0-3.51-3.54,11.14,11.14,0,0,1-6.57-10.87A11.46,11.46,0,1,1,104.53,142a5.78,5.78,0,0,0,.33,6.88c1.75,2.4,4.18,3.66,7.11,3.09,3.08-.6,6.07-1.64,9.11-2.41a53.34,53.34,0,0,1,19.17-1.05c6.06.69,12.08,1.74,18.14,2.46,14.19,1.69,27.47-.84,39.46-8.92,3.8-2.57,7.52-5.25,11.28-7.88C209.58,133.85,210,133.52,210.69,133Zm-63.61,86.39a30.93,30.93,0,0,0-5.74-16.75,17.63,17.63,0,0,0-7.64-6.47,8.12,8.12,0,0,0-10.24,3.12,14.93,14.93,0,0,0-2.43,7,30.21,30.21,0,0,0,5.82,21.19,17.13,17.13,0,0,0,6.78,5.82c4.59,2.09,8.91.67,11.36-3.75C146.57,226.73,147.07,223.6,147.08,219.43Zm50.34-15.8a31.12,31.12,0,0,0-5.69-17,17.86,17.86,0,0,0-7.24-6.32c-4.49-2-8.84-.55-11.23,3.78a18.39,18.39,0,0,0-2.11,9.37,30.82,30.82,0,0,0,4,14.73c2.1,3.78,4.75,7.08,8.78,9a8.28,8.28,0,0,0,11.45-3.76C196.88,210.62,197.4,207.55,197.42,203.63Z"/><path class="cls-1" d="M189.8,132.28a11.49,11.49,0,0,1-23-.05,11.61,11.61,0,0,1,11.53-11.48A11.47,11.47,0,0,1,189.8,132.28Z"/><path class="cls-1" d="M150.25,118.52a6.84,6.84,0,1,1,.05,13.67,6.84,6.84,0,0,1-.05-13.67Z"/><path class="cls-2" d="M147.08,219.43c0,4.17-.51,7.3-2.09,10.17-2.45,4.42-6.77,5.84-11.36,3.75a17.13,17.13,0,0,1-6.78-5.82A30.21,30.21,0,0,1,121,206.34a14.93,14.93,0,0,1,2.43-7,8.12,8.12,0,0,1,10.24-3.12,17.63,17.63,0,0,1,7.64,6.47A30.93,30.93,0,0,1,147.08,219.43Z"/><path class="cls-2" d="M197.42,203.63c0,3.92-.54,7-2.07,9.83a8.28,8.28,0,0,1-11.45,3.76c-4-1.92-6.68-5.22-8.78-9a30.82,30.82,0,0,1-4-14.73,18.39,18.39,0,0,1,2.11-9.37c2.39-4.33,6.74-5.8,11.23-3.78a17.86,17.86,0,0,1,7.24,6.32A31.12,31.12,0,0,1,197.42,203.63Z"/></svg>