<?xml version="1.0" encoding="UTF-8"?>
<svg version="1.1" xmlns="http://www.w3.org/2000/svg" width="500" height="500">
<path d="M0 0 C0.90045044 -0.00705963 1.80090088 -0.01411926 2.7286377 -0.02139282 C40.56271231 -0.2507174 40.56271231 -0.2507174 57.20703125 3.203125 C58.69759033 3.50911621 58.69759033 3.50911621 60.21826172 3.82128906 C82.220508 8.47437301 102.98300327 15.38050853 123.20703125 25.203125 C123.92810059 25.55068848 124.64916992 25.89825195 125.39208984 26.25634766 C183.08785103 54.41594201 228.273258 107.04791745 249.3125 167.4375 C256.90979679 190.17968485 262.28374061 213.92910166 262.41015625 237.99609375 C262.41721588 238.89654419 262.42427551 239.79699463 262.43154907 240.72473145 C262.66087365 278.55880606 262.66087365 278.55880606 259.20703125 295.203125 C258.90104004 296.69368408 258.90104004 296.69368408 258.58886719 298.21435547 C253.93578324 320.21660175 247.02964772 340.97909702 237.20703125 361.203125 C236.85946777 361.92419434 236.5119043 362.64526367 236.15380859 363.38818359 C207.99421424 421.08394478 155.3622388 466.26935175 94.97265625 487.30859375 C72.2304714 494.90589054 48.48105459 500.27983436 24.4140625 500.40625 C23.06338684 500.41683945 23.06338684 500.41683945 21.6854248 500.42764282 C-16.14864981 500.6569674 -16.14864981 500.6569674 -32.79296875 497.203125 C-34.28352783 496.89713379 -34.28352783 496.89713379 -35.80419922 496.58496094 C-57.8064455 491.93187699 -78.56894077 485.02574147 -98.79296875 475.203125 C-99.51403809 474.85556152 -100.23510742 474.50799805 -100.97802734 474.14990234 C-158.67378853 445.99030799 -203.8591955 393.35833255 -224.8984375 332.96875 C-232.49573429 310.22656515 -237.86967811 286.47714834 -237.99609375 262.41015625 C-238.00315338 261.50970581 -238.01021301 260.60925537 -238.01748657 259.68151855 C-238.24681115 221.84744394 -238.24681115 221.84744394 -234.79296875 205.203125 C-234.48697754 203.71256592 -234.48697754 203.71256592 -234.17480469 202.19189453 C-229.52172074 180.18964825 -222.61558522 159.42715298 -212.79296875 139.203125 C-212.44540527 138.48205566 -212.0978418 137.76098633 -211.73974609 137.01806641 C-183.58015174 79.32230522 -130.9481763 34.13689825 -70.55859375 13.09765625 C-47.8164089 5.50035946 -24.06699209 0.12641564 0 0 Z " fill="#000000" transform="translate(237.79296875,-0.203125)"/>
<path d="M0 0 C0.90045044 -0.00705963 1.80090088 -0.01411926 2.7286377 -0.02139282 C40.56271231 -0.2507174 40.56271231 -0.2507174 57.20703125 3.203125 C58.69759033 3.50911621 58.69759033 3.50911621 60.21826172 3.82128906 C82.220508 8.47437301 102.98300327 15.38050853 123.20703125 25.203125 C123.92810059 25.55068848 124.64916992 25.89825195 125.39208984 26.25634766 C183.08785103 54.41594201 228.273258 107.04791745 249.3125 167.4375 C256.90979679 190.17968485 262.28374061 213.92910166 262.41015625 237.99609375 C262.41721588 238.89654419 262.42427551 239.79699463 262.43154907 240.72473145 C262.66087365 278.55880606 262.66087365 278.55880606 259.20703125 295.203125 C258.90104004 296.69368408 258.90104004 296.69368408 258.58886719 298.21435547 C253.93578324 320.21660175 247.02964772 340.97909702 237.20703125 361.203125 C236.85946777 361.92419434 236.5119043 362.64526367 236.15380859 363.38818359 C207.99421424 421.08394478 155.3622388 466.26935175 94.97265625 487.30859375 C72.2304714 494.90589054 48.48105459 500.27983436 24.4140625 500.40625 C23.06338684 500.41683945 23.06338684 500.41683945 21.6854248 500.42764282 C-16.14864981 500.6569674 -16.14864981 500.6569674 -32.79296875 497.203125 C-34.28352783 496.89713379 -34.28352783 496.89713379 -35.80419922 496.58496094 C-57.8064455 491.93187699 -78.56894077 485.02574147 -98.79296875 475.203125 C-99.51403809 474.85556152 -100.23510742 474.50799805 -100.97802734 474.14990234 C-158.67378853 445.99030799 -203.8591955 393.35833255 -224.8984375 332.96875 C-232.49573429 310.22656515 -237.86967811 286.47714834 -237.99609375 262.41015625 C-238.00315338 261.50970581 -238.01021301 260.60925537 -238.01748657 259.68151855 C-238.24681115 221.84744394 -238.24681115 221.84744394 -234.79296875 205.203125 C-234.48697754 203.71256592 -234.48697754 203.71256592 -234.17480469 202.19189453 C-229.52172074 180.18964825 -222.61558522 159.42715298 -212.79296875 139.203125 C-212.44540527 138.48205566 -212.0978418 137.76098633 -211.73974609 137.01806641 C-183.58015174 79.32230522 -130.9481763 34.13689825 -70.55859375 13.09765625 C-47.8164089 5.50035946 -24.06699209 0.12641564 0 0 Z M-124.79296875 84.203125 C-125.52902344 84.82832031 -126.26507813 85.45351562 -127.0234375 86.09765625 C-129.665848 88.41253178 -132.2423478 90.78829364 -134.79296875 93.203125 C-135.72786133 94.08701904 -135.72786133 94.08701904 -136.68164062 94.98876953 C-151.8530325 109.45326354 -164.26844551 125.0834932 -174.79296875 143.203125 C-175.16873047 143.84088867 -175.54449219 144.47865234 -175.93164062 145.13574219 C-187.86905786 165.62796362 -195.11400947 188.05290147 -199.79296875 211.203125 C-200.05762939 212.4092041 -200.05762939 212.4092041 -200.32763672 213.63964844 C-205.8569174 239.16530693 -204.32699811 267.87599504 -198.79296875 293.203125 C-198.63812012 293.94675293 -198.48327148 294.69038086 -198.32373047 295.45654297 C-186.75279368 350.21026709 -153.33779199 398.94141752 -106.77734375 429.8984375 C-102.84923222 432.45012181 -98.84292051 434.85076973 -94.79296875 437.203125 C-94.15520508 437.57888672 -93.51744141 437.95464844 -92.86035156 438.34179688 C-72.36813013 450.27921411 -49.94319228 457.52416572 -26.79296875 462.203125 C-25.98891602 462.37956543 -25.18486328 462.55600586 -24.35644531 462.73779297 C1.1987748 468.27347719 29.84562978 466.70098893 55.20703125 461.203125 C56.13918457 461.01057129 57.07133789 460.81801758 58.03173828 460.61962891 C69.85067814 458.15623503 81.08967721 454.90800987 92.20703125 450.203125 C92.98401367 449.87828125 93.76099609 449.5534375 94.56152344 449.21875 C139.57459845 430.22858219 175.8718179 397.52055353 200.20703125 355.203125 C200.57666992 354.57229004 200.94630859 353.94145508 201.32714844 353.29150391 C207.6380683 342.45824285 212.04812886 331.00717087 216.20703125 319.203125 C216.4611377 318.4901123 216.71524414 317.77709961 216.97705078 317.04248047 C220.9687123 305.6833047 223.28752883 294.07270121 225.20703125 282.203125 C225.3270752 281.48527832 225.44711914 280.76743164 225.57080078 280.02783203 C234.06974095 227.12161281 220.01408795 169.99535804 188.765625 126.65234375 C185.37855953 122.0546253 181.91003577 117.55208974 178.20703125 113.203125 C177.58183594 112.46707031 176.95664062 111.73101562 176.3125 110.97265625 C173.99762447 108.33024575 171.62186261 105.75374595 169.20703125 103.203125 C168.61776855 102.57986328 168.02850586 101.95660156 167.42138672 101.31445312 C152.33887664 85.49484196 136.13016001 73.0851278 117.20703125 62.203125 C116.57619629 61.83348633 115.94536133 61.46384766 115.29541016 61.08300781 C93.76255477 48.53903568 68.77098809 40.92344344 44.20703125 37.203125 C42.93214844 36.99816406 41.65726563 36.79320312 40.34375 36.58203125 C-18.16282364 28.10915155 -79.83989666 45.92702044 -124.79296875 84.203125 Z " fill="#F8A60F" transform="translate(237.79296875,-0.203125)"/>
<path d="M0 0 C1.17224121 0.00491455 2.34448242 0.0098291 3.55224609 0.01489258 C25.11582988 0.30066795 46.77259368 4.28527735 66.0625 14.3125 C66.3925 14.9725 66.7225 15.6325 67.0625 16.3125 C66.03113568 19.17067861 64.92905692 21.92691484 63.73046875 24.71484375 C63.37866043 25.54834854 63.02685211 26.38185333 62.66438293 27.24061584 C61.91720993 29.00661137 61.16625851 30.77101226 60.41186523 32.53393555 C59.25769043 35.23202226 58.1151683 37.93480527 56.97460938 40.63867188 C56.24807847 42.35185216 55.52088652 44.06475228 54.79296875 45.77734375 C54.27877632 46.99151222 54.27877632 46.99151222 53.75419617 48.23020935 C53.26908318 49.36136925 53.26908318 49.36136925 52.77416992 50.51538086 C52.49135666 51.17775253 52.2085434 51.84012421 51.91716003 52.52256775 C51.0625 54.3125 51.0625 54.3125 49.0625 57.3125 C45.37177623 56.6793877 42.12402638 55.63893173 38.65234375 54.24609375 C20.1625503 47.19124067 0.58008281 43.23450349 -18.875 49.1875 C-33.06013286 55.60118098 -43.0101713 65.84090754 -48.5625 80.3671875 C-50.42186233 85.61495979 -51.84495063 90.84975313 -52.9375 96.3125 C-28.5175 96.3125 -4.0975 96.3125 21.0625 96.3125 C21.0625 106.8725 21.0625 117.4325 21.0625 128.3125 C-4.3475 128.3125 -29.7575 128.3125 -55.9375 128.3125 C-55.9375 135.2425 -55.9375 142.1725 -55.9375 149.3125 C-34.4875 149.3125 -13.0375 149.3125 9.0625 149.3125 C9.0625 160.2025 9.0625 171.0925 9.0625 182.3125 C-11.3975 182.3125 -31.8575 182.3125 -52.9375 182.3125 C-45.22700506 202.13948699 -40.51526333 213.42002617 -21.34375 222.0859375 C-12.478351 225.27829448 -3.95648756 225.68515109 5.38891602 225.68310547 C7.59667202 225.68744433 9.80236611 225.72375789 12.00976562 225.76171875 C25.73388308 225.86973366 37.78471879 222.68108361 50.70703125 218.046875 C53.0625 217.3125 53.0625 217.3125 56.0625 217.3125 C56.0625 232.8225 56.0625 248.3325 56.0625 264.3125 C38.10925506 271.21759421 38.10925506 271.21759421 32.3125 272.375 C31.55453125 272.53097656 30.7965625 272.68695313 30.015625 272.84765625 C-1.94322431 277.87821586 -37.36085635 274.85571688 -64.51953125 255.890625 C-89.14370864 237.84512994 -102.96500151 212.14749094 -107.9375 182.3125 C-116.1875 182.3125 -124.4375 182.3125 -132.9375 182.3125 C-132.9375 171.4225 -132.9375 160.5325 -132.9375 149.3125 C-126.0075 149.3125 -119.0775 149.3125 -111.9375 149.3125 C-111.9375 142.3825 -111.9375 135.4525 -111.9375 128.3125 C-118.8675 128.3125 -125.7975 128.3125 -132.9375 128.3125 C-132.9375 117.7525 -132.9375 107.1925 -132.9375 96.3125 C-124.6875 96.3125 -116.4375 96.3125 -107.9375 96.3125 C-107.6075 93.0125 -107.2775 89.7125 -106.9375 86.3125 C-102.87205693 66.74257307 -94.30889893 49.15936364 -80.9375 34.3125 C-80.25171875 33.54421875 -79.5659375 32.7759375 -78.859375 31.984375 C-58.44574168 10.36104489 -29.34514074 -0.14760276 0 0 Z " fill="#FDFDFD" transform="translate(266.9375,112.6875)"/>
</svg>
