<?xml version="1.0" encoding="UTF-8"?>
<svg version="1.1" xmlns="http://www.w3.org/2000/svg" width="500" height="500">
<path d="M0 0 C0.90045044 -0.00705963 1.80090088 -0.01411926 2.7286377 -0.02139282 C40.56271231 -0.2507174 40.56271231 -0.2507174 57.20703125 3.203125 C58.69759033 3.50911621 58.69759033 3.50911621 60.21826172 3.82128906 C82.220508 8.47437301 102.98300327 15.38050853 123.20703125 25.203125 C123.92810059 25.55068848 124.64916992 25.89825195 125.39208984 26.25634766 C183.08785103 54.41594201 228.273258 107.04791745 249.3125 167.4375 C256.90979679 190.17968485 262.28374061 213.92910166 262.41015625 237.99609375 C262.41721588 238.89654419 262.42427551 239.79699463 262.43154907 240.72473145 C262.66087365 278.55880606 262.66087365 278.55880606 259.20703125 295.203125 C258.90104004 296.69368408 258.90104004 296.69368408 258.58886719 298.21435547 C253.93578324 320.21660175 247.02964772 340.97909702 237.20703125 361.203125 C236.85946777 361.92419434 236.5119043 362.64526367 236.15380859 363.38818359 C207.99421424 421.08394478 155.3622388 466.26935175 94.97265625 487.30859375 C72.2304714 494.90589054 48.48105459 500.27983436 24.4140625 500.40625 C23.06338684 500.41683945 23.06338684 500.41683945 21.6854248 500.42764282 C-16.14864981 500.6569674 -16.14864981 500.6569674 -32.79296875 497.203125 C-34.28352783 496.89713379 -34.28352783 496.89713379 -35.80419922 496.58496094 C-57.8064455 491.93187699 -78.56894077 485.02574147 -98.79296875 475.203125 C-99.51403809 474.85556152 -100.23510742 474.50799805 -100.97802734 474.14990234 C-158.67378853 445.99030799 -203.8591955 393.35833255 -224.8984375 332.96875 C-232.49573429 310.22656515 -237.86967811 286.47714834 -237.99609375 262.41015625 C-238.00315338 261.50970581 -238.01021301 260.60925537 -238.01748657 259.68151855 C-238.24681115 221.84744394 -238.24681115 221.84744394 -234.79296875 205.203125 C-234.48697754 203.71256592 -234.48697754 203.71256592 -234.17480469 202.19189453 C-229.52172074 180.18964825 -222.61558522 159.42715298 -212.79296875 139.203125 C-212.44540527 138.48205566 -212.0978418 137.76098633 -211.73974609 137.01806641 C-183.58015174 79.32230522 -130.9481763 34.13689825 -70.55859375 13.09765625 C-47.8164089 5.50035946 -24.06699209 0.12641564 0 0 Z " fill="#000000" transform="translate(237.79296875,-0.203125)"/>
<path d="M0 0 C0.90045044 -0.00705963 1.80090088 -0.01411926 2.7286377 -0.02139282 C40.56271231 -0.2507174 40.56271231 -0.2507174 57.20703125 3.203125 C58.69759033 3.50911621 58.69759033 3.50911621 60.21826172 3.82128906 C82.220508 8.47437301 102.98300327 15.38050853 123.20703125 25.203125 C123.92810059 25.55068848 124.64916992 25.89825195 125.39208984 26.25634766 C183.08785103 54.41594201 228.273258 107.04791745 249.3125 167.4375 C256.90979679 190.17968485 262.28374061 213.92910166 262.41015625 237.99609375 C262.41721588 238.89654419 262.42427551 239.79699463 262.43154907 240.72473145 C262.66087365 278.55880606 262.66087365 278.55880606 259.20703125 295.203125 C258.90104004 296.69368408 258.90104004 296.69368408 258.58886719 298.21435547 C253.93578324 320.21660175 247.02964772 340.97909702 237.20703125 361.203125 C236.85946777 361.92419434 236.5119043 362.64526367 236.15380859 363.38818359 C207.99421424 421.08394478 155.3622388 466.26935175 94.97265625 487.30859375 C72.2304714 494.90589054 48.48105459 500.27983436 24.4140625 500.40625 C23.06338684 500.41683945 23.06338684 500.41683945 21.6854248 500.42764282 C-16.14864981 500.6569674 -16.14864981 500.6569674 -32.79296875 497.203125 C-34.28352783 496.89713379 -34.28352783 496.89713379 -35.80419922 496.58496094 C-57.8064455 491.93187699 -78.56894077 485.02574147 -98.79296875 475.203125 C-99.51403809 474.85556152 -100.23510742 474.50799805 -100.97802734 474.14990234 C-158.67378853 445.99030799 -203.8591955 393.35833255 -224.8984375 332.96875 C-232.49573429 310.22656515 -237.86967811 286.47714834 -237.99609375 262.41015625 C-238.00315338 261.50970581 -238.01021301 260.60925537 -238.01748657 259.68151855 C-238.24681115 221.84744394 -238.24681115 221.84744394 -234.79296875 205.203125 C-234.48697754 203.71256592 -234.48697754 203.71256592 -234.17480469 202.19189453 C-229.52172074 180.18964825 -222.61558522 159.42715298 -212.79296875 139.203125 C-212.44540527 138.48205566 -212.0978418 137.76098633 -211.73974609 137.01806641 C-183.58015174 79.32230522 -130.9481763 34.13689825 -70.55859375 13.09765625 C-47.8164089 5.50035946 -24.06699209 0.12641564 0 0 Z M-124.79296875 84.203125 C-125.52902344 84.82832031 -126.26507813 85.45351562 -127.0234375 86.09765625 C-129.665848 88.41253178 -132.2423478 90.78829364 -134.79296875 93.203125 C-135.72786133 94.08701904 -135.72786133 94.08701904 -136.68164062 94.98876953 C-151.8530325 109.45326354 -164.26844551 125.0834932 -174.79296875 143.203125 C-175.16873047 143.84088867 -175.54449219 144.47865234 -175.93164062 145.13574219 C-187.86905786 165.62796362 -195.11400947 188.05290147 -199.79296875 211.203125 C-200.05762939 212.4092041 -200.05762939 212.4092041 -200.32763672 213.63964844 C-205.8569174 239.16530693 -204.32699811 267.87599504 -198.79296875 293.203125 C-198.63812012 293.94675293 -198.48327148 294.69038086 -198.32373047 295.45654297 C-186.75279368 350.21026709 -153.33779199 398.94141752 -106.77734375 429.8984375 C-102.84923222 432.45012181 -98.84292051 434.85076973 -94.79296875 437.203125 C-94.15520508 437.57888672 -93.51744141 437.95464844 -92.86035156 438.34179688 C-72.36813013 450.27921411 -49.94319228 457.52416572 -26.79296875 462.203125 C-25.98891602 462.37956543 -25.18486328 462.55600586 -24.35644531 462.73779297 C1.1987748 468.27347719 29.84562978 466.70098893 55.20703125 461.203125 C56.13918457 461.01057129 57.07133789 460.81801758 58.03173828 460.61962891 C69.85067814 458.15623503 81.08967721 454.90800987 92.20703125 450.203125 C92.98401367 449.87828125 93.76099609 449.5534375 94.56152344 449.21875 C139.57459845 430.22858219 175.8718179 397.52055353 200.20703125 355.203125 C200.57666992 354.57229004 200.94630859 353.94145508 201.32714844 353.29150391 C207.6380683 342.45824285 212.04812886 331.00717087 216.20703125 319.203125 C216.4611377 318.4901123 216.71524414 317.77709961 216.97705078 317.04248047 C220.9687123 305.6833047 223.28752883 294.07270121 225.20703125 282.203125 C225.3270752 281.48527832 225.44711914 280.76743164 225.57080078 280.02783203 C234.06974095 227.12161281 220.01408795 169.99535804 188.765625 126.65234375 C185.37855953 122.0546253 181.91003577 117.55208974 178.20703125 113.203125 C177.58183594 112.46707031 176.95664062 111.73101562 176.3125 110.97265625 C173.99762447 108.33024575 171.62186261 105.75374595 169.20703125 103.203125 C168.61776855 102.57986328 168.02850586 101.95660156 167.42138672 101.31445312 C152.33887664 85.49484196 136.13016001 73.0851278 117.20703125 62.203125 C116.57619629 61.83348633 115.94536133 61.46384766 115.29541016 61.08300781 C93.76255477 48.53903568 68.77098809 40.92344344 44.20703125 37.203125 C42.93214844 36.99816406 41.65726563 36.79320312 40.34375 36.58203125 C-18.16282364 28.10915155 -79.83989666 45.92702044 -124.79296875 84.203125 Z " fill="#F8A60F" transform="translate(237.79296875,-0.203125)"/>
<path d="M0 0 C18.69491688 16.11630765 25.45877482 35.59056868 27.25 59.6875 C27.25 62.6575 27.25 65.6275 27.25 68.6875 C16.36 68.6875 5.47 68.6875 -5.75 68.6875 C-6.08 64.0675 -6.41 59.4475 -6.75 54.6875 C-8.95064791 42.37515706 -13.31668999 29.40159243 -23.75 21.6875 C-34.51113313 15.27534895 -43.76915945 13.3381389 -56.125 13.375 C-57.1975 13.35888672 -58.27 13.34277344 -59.375 13.32617188 C-72.91753149 13.31793433 -84.32733681 17.54256866 -94.27734375 26.78515625 C-103.4830123 37.59054603 -106.92656432 50.5218583 -106.00634766 64.54296875 C-104.34110998 78.47387139 -96.74015445 91.78889469 -89.75 103.6875 C-89.48464951 104.35215271 -89.21929901 105.01680542 -88.94590759 105.70159912 C-87.78217049 108.18722297 -86.77443922 109.81966831 -84.75 111.6875 C-80.37515429 112.8868082 -76.0867306 112.75799571 -71.57421875 112.6875 C-69.65377495 112.7038147 -69.65377495 112.7038147 -67.6945343 112.72045898 C-64.30239447 112.74883001 -60.91214746 112.72964879 -57.52008057 112.70037842 C-54.05427846 112.67894633 -50.58881434 112.70273497 -47.12304688 112.72265625 C-40.33142373 112.75253108 -33.54151945 112.73302338 -26.75 112.6875 C-26.75 119.2875 -26.75 125.8875 -26.75 132.6875 C-42.92 132.6875 -59.09 132.6875 -75.75 132.6875 C-73.77 138.2975 -71.79 143.9075 -69.75 149.6875 C-69.23848579 153.23924479 -68.90914831 155.862284 -69.0625 159.3125 C-69.08030518 160.09753906 -69.09811035 160.88257813 -69.11645508 161.69140625 C-69.5775063 171.78341879 -73.11533436 180.44151921 -77.5625 189.4375 C-80.73162867 196.1245608 -80.47509606 202.18286905 -79 209.3125 C-78.02178069 211.82987726 -78.02178069 211.82987726 -75.90600586 212.32006836 C-73.20079714 212.78109646 -70.49506537 212.91101591 -67.75878906 213.08032227 C-56.33879137 213.87242789 -45.68412889 216.63046904 -34.75219727 219.85571289 C-18.926946 224.51641935 -4.00606569 226.19915509 11.25 218.6875 C12.61504972 217.89342011 13.97157098 217.08416604 15.3125 216.25 C18.25 214.6875 18.25 214.6875 20.23144531 215.29052734 C22.76413927 217.0433182 23.89637023 218.84047458 25.484375 221.4765625 C26.34482422 222.88808594 26.34482422 222.88808594 27.22265625 224.328125 C27.80917969 225.31296875 28.39570313 226.2978125 29 227.3125 C29.60199219 228.30507813 30.20398438 229.29765625 30.82421875 230.3203125 C32.30860593 232.77072943 33.78337072 235.22642762 35.25 237.6875 C25.85615874 249.65707193 10.18602979 256.81281313 -4.75 258.6875 C-24.22561248 260.16934008 -42.52142754 254.77623766 -60.72167969 248.38085938 C-82.16433626 241.050919 -101.1253943 240.6812002 -121.75 250.6875 C-122.93722401 251.44799088 -124.10913515 252.23408306 -125.25 253.0625 C-127.75 254.6875 -127.75 254.6875 -129.70849609 254.53027344 C-132.34636363 253.44130923 -133.26372536 252.14411374 -134.9140625 249.828125 C-135.76097656 248.64863281 -135.76097656 248.64863281 -136.625 247.4453125 C-137.49125 246.20394531 -137.49125 246.20394531 -138.375 244.9375 C-138.96023437 244.12539063 -139.54546875 243.31328125 -140.1484375 242.4765625 C-142.88166286 238.62747908 -145.11152468 235.14079188 -146.75 230.6875 C-142.56140628 226.41164391 -138.39756514 222.16620506 -133.8125 218.3125 C-117.89676398 204.54412519 -104.1391682 185.87692111 -102.5 164.4140625 C-102.19996606 155.9193515 -103.47431457 148.54307896 -106.75 140.6875 C-107.24757812 139.48851074 -107.74515625 138.28952148 -108.2578125 137.05419922 C-109.55240525 134.83563514 -110.20133891 133.87544151 -112.65533447 133.03483582 C-115.09030941 132.77845838 -117.44244353 132.74430513 -119.890625 132.78515625 C-120.77280701 132.77286484 -121.65498901 132.76057343 -122.56390381 132.74790955 C-125.37678035 132.7161595 -128.18704111 132.73246105 -131 132.75 C-132.90887855 132.73689224 -134.81773835 132.72065301 -136.7265625 132.70117188 C-141.40263286 132.65441117 -146.07209833 132.67264278 -150.75 132.6875 C-150.75 126.0875 -150.75 119.4875 -150.75 112.6875 C-141.18 112.6875 -131.61 112.6875 -121.75 112.6875 C-123.090625 110.356875 -124.43125 108.02625 -125.8125 105.625 C-130.22795028 97.8257918 -134.2195933 89.92511564 -137.75 81.6875 C-138.11222656 80.87667969 -138.47445312 80.06585938 -138.84765625 79.23046875 C-144.28344068 64.7940366 -141.09435788 46.67316696 -135.75 32.6875 C-133.75696089 28.39844195 -131.46942163 24.55132032 -128.75 20.6875 C-128.22792969 19.91535156 -127.70585937 19.14320313 -127.16796875 18.34765625 C-113.86827095 -0.06482076 -93.79549451 -11.18225819 -71.75 -15.3125 C-47.10904379 -18.9834996 -20.00934968 -15.82006435 0 0 Z " fill="#FCFCFC" transform="translate(307.75,128.3125)"/>
</svg>
