<svg version="1.1" id="Layer_1" xmlns="http://www.w3.org/2000/svg" xmlns:xlink="http://www.w3.org/1999/xlink" x="0px" y="0px"
	 width="100%" viewBox="0 0 1386 1386" enable-background="new 0 0 1386 1386" xml:space="preserve">
<path fill="#24E5DF" opacity="1.000000" stroke="none" 
	d="
M1387.000000,641.000000 
	C1387.000000,675.687561 1387.000000,710.375122 1386.652832,745.190063 
	C1385.865601,748.997131 1385.466064,752.682190 1384.978271,756.355530 
	C1383.002075,771.237061 1381.322266,786.167480 1378.920166,800.980408 
	C1376.165894,817.966003 1373.780151,835.114502 1369.408813,851.711426 
	C1362.375610,878.414001 1354.710327,905.022156 1345.672974,931.102295 
	C1338.436157,951.986511 1329.464478,972.359680 1319.970947,992.346069 
	C1310.862305,1011.522278 1300.824463,1030.351196 1289.855835,1048.524658 
	C1277.716797,1068.637329 1264.891846,1088.456055 1250.834473,1107.258179 
	C1235.757446,1127.424438 1219.454834,1146.757324 1202.635376,1165.510620 
	C1190.126343,1179.457764 1176.406128,1192.424927 1162.384277,1204.881714 
	C1144.760254,1220.538574 1126.938477,1236.125488 1107.988647,1250.096680 
	C1087.129028,1265.476074 1065.371948,1279.792114 1043.109253,1293.067871 
	C1023.783325,1304.592163 1003.491089,1314.626221 983.095642,1324.187744 
	C965.116882,1332.616455 946.623474,1340.077637 927.970642,1346.910645 
	C890.651978,1360.581177 852.402893,1371.070312 813.041748,1376.959229 
	C792.057312,1380.098633 770.937012,1382.326904 749.891479,1385.069702 
	C748.861267,1385.203979 747.960876,1386.333740 747.000000,1387.000000 
	C712.312439,1387.000000 677.624878,1387.000000 642.809937,1386.652832 
	C641.335938,1385.870605 640.013000,1385.164917 638.638855,1385.044800 
	C629.962097,1384.285400 621.210205,1384.105835 612.603088,1382.887573 
	C596.175232,1380.562134 579.660461,1378.423828 563.485352,1374.838013 
	C537.914124,1369.169189 512.337891,1363.239868 487.223236,1355.857666 
	C444.705200,1343.359985 404.018982,1326.078369 365.257294,1304.553223 
	C347.410126,1294.642090 329.819336,1284.186401 312.701202,1273.070801 
	C297.997009,1263.522827 283.716949,1253.204712 269.996735,1242.287842 
	C252.300735,1228.207397 234.717041,1213.866699 218.220764,1198.424805 
	C191.580063,1173.486938 166.527817,1146.931030 144.968674,1117.365479 
	C130.996490,1098.204468 116.906906,1079.058228 104.218452,1059.050171 
	C88.848778,1034.814453 74.998131,1009.609680 63.679005,983.158325 
	C55.858803,964.883606 47.921562,946.622192 41.088940,927.969421 
	C27.418997,890.650879 16.928993,852.402527 11.040894,813.041443 
	C7.901792,792.057068 5.673228,770.936890 2.930189,749.891479 
	C2.795905,748.861267 1.666196,747.960876 1.000005,747.000000 
	C1.000000,712.312439 1.000000,677.624878 1.347289,642.809937 
	C2.129207,641.502197 2.830513,640.349304 2.954767,639.137207 
	C3.707392,631.794983 4.036222,624.398682 5.051009,617.096130 
	C7.539138,599.191040 9.428595,581.135864 13.200335,563.491943 
	C18.709038,537.722595 24.675718,511.968231 32.208027,486.733063 
	C44.830914,444.443176 61.938046,403.849060 83.442497,365.254944 
	C93.379318,347.421295 103.813454,329.819580 114.928864,312.701477 
	C124.476738,297.997406 134.794617,283.717316 145.711426,269.997192 
	C159.791946,252.300949 174.133896,234.718155 189.574936,218.220551 
	C214.511398,191.577820 241.070007,166.528198 270.634857,144.967834 
	C289.795166,130.995071 308.941895,116.906471 328.949768,104.218079 
	C353.185547,88.848457 378.390167,74.998047 404.841553,63.679184 
	C423.116241,55.859219 441.377411,47.921738 460.030060,41.089058 
	C497.348541,27.418882 535.597168,16.929443 574.958069,11.040789 
	C595.942566,7.901364 617.062927,5.673183 638.108521,2.930200 
	C639.138733,2.795930 640.039124,1.666194 641.000000,1.000001 
	C675.687561,1.000000 710.375122,1.000000 745.190063,1.347248 
	C746.497375,2.129154 747.649963,2.830563 748.861694,2.954778 
	C756.203918,3.707403 763.600281,4.036197 770.902832,5.050989 
	C788.807861,7.539138 806.862915,9.428690 824.506836,13.200410 
	C850.276123,18.709110 876.030457,24.676052 901.265747,32.207920 
	C943.555664,44.829975 984.149353,61.937508 1022.743530,83.441231 
	C1040.577271,93.377769 1058.178955,103.812004 1075.296997,114.927437 
	C1090.000977,124.475357 1104.280884,134.793564 1118.000977,145.710342 
	C1135.697266,159.790787 1153.280640,174.132111 1169.777832,189.573425 
	C1196.420044,214.510269 1221.470337,241.068085 1243.030518,270.633057 
	C1257.003296,289.793457 1271.093018,308.939636 1283.781006,328.947784 
	C1299.150146,353.183929 1313.000854,378.388550 1324.319824,404.839996 
	C1332.140015,423.114960 1340.077881,441.376282 1346.910889,460.029175 
	C1360.581299,497.347870 1371.070312,535.596924 1376.958984,574.958130 
	C1380.098389,595.942627 1382.326416,617.063049 1385.069580,638.108582 
	C1385.203735,639.138733 1386.333740,640.039185 1387.000000,641.000000 
M1238.767700,492.673462 
	C1207.158691,408.803009 1159.294922,335.562561 1093.683228,274.481750 
	C978.047424,166.831284 840.846069,114.295418 682.874878,116.520683 
	C624.159424,117.347778 566.826355,127.226227 511.334015,146.489288 
	C363.312775,197.871902 252.557846,293.145111 180.450638,432.063904 
	C127.559113,533.962585 107.825058,642.946106 120.508148,757.051025 
	C137.488068,909.812683 204.700333,1037.065430 321.586700,1136.606567 
	C432.758545,1231.281250 562.632751,1276.359375 708.742493,1274.177734 
	C766.639282,1273.313354 823.060791,1263.464111 877.962219,1245.225830 
	C967.357239,1215.528564 1044.967651,1166.879028 1110.804810,1099.472778 
	C1152.097168,1057.196167 1186.257935,1009.785889 1212.838501,957.013550 
	C1259.513428,864.345764 1279.796875,766.130981 1274.200317,662.528992 
	C1271.058105,604.357788 1259.259155,548.012146 1238.767700,492.673462 
z"/>
<path fill="none" opacity="1.000000" stroke="none" 
	d="
M1.000005,747.468628 
	C1.666196,747.960876 2.795905,748.861267 2.930189,749.891479 
	C5.673228,770.936890 7.901792,792.057068 11.040894,813.041443 
	C16.928993,852.402527 27.418997,890.650879 41.088940,927.969421 
	C47.921562,946.622192 55.858803,964.883606 63.679005,983.158325 
	C74.998131,1009.609680 88.848778,1034.814453 104.218452,1059.050171 
	C116.906906,1079.058228 130.996490,1098.204468 144.968674,1117.365479 
	C166.527817,1146.931030 191.580063,1173.486938 218.220764,1198.424805 
	C234.717041,1213.866699 252.300735,1228.207397 269.996735,1242.287842 
	C283.716949,1253.204712 297.997009,1263.522827 312.701202,1273.070801 
	C329.819336,1284.186401 347.410126,1294.642090 365.257294,1304.553223 
	C404.018982,1326.078369 444.705200,1343.359985 487.223236,1355.857666 
	C512.337891,1363.239868 537.914124,1369.169189 563.485352,1374.838013 
	C579.660461,1378.423828 596.175232,1380.562134 612.603088,1382.887573 
	C621.210205,1384.105835 629.962097,1384.285400 638.638855,1385.044800 
	C640.013000,1385.164917 641.335938,1385.870605 642.341309,1386.652832 
	C428.406281,1387.000000 214.812592,1387.000000 1.000000,1387.000000 
	C1.000000,1173.979126 1.000000,960.958252 1.000005,747.468628 
z"/>
<path fill="none" opacity="1.000000" stroke="none" 
	d="
M640.531372,1.000001 
	C640.039124,1.666194 639.138733,2.795930 638.108521,2.930200 
	C617.062927,5.673183 595.942566,7.901364 574.958069,11.040789 
	C535.597168,16.929443 497.348541,27.418882 460.030060,41.089058 
	C441.377411,47.921738 423.116241,55.859219 404.841553,63.679184 
	C378.390167,74.998047 353.185547,88.848457 328.949768,104.218079 
	C308.941895,116.906471 289.795166,130.995071 270.634857,144.967834 
	C241.070007,166.528198 214.511398,191.577820 189.574936,218.220551 
	C174.133896,234.718155 159.791946,252.300949 145.711426,269.997192 
	C134.794617,283.717316 124.476738,297.997406 114.928864,312.701477 
	C103.813454,329.819580 93.379318,347.421295 83.442497,365.254944 
	C61.938046,403.849060 44.830914,444.443176 32.208027,486.733063 
	C24.675718,511.968231 18.709038,537.722595 13.200335,563.491943 
	C9.428595,581.135864 7.539138,599.191040 5.051009,617.096130 
	C4.036222,624.398682 3.707392,631.794983 2.954767,639.137207 
	C2.830513,640.349304 2.129207,641.502197 1.347289,642.341248 
	C1.000000,428.406281 1.000000,214.812592 1.000000,1.000000 
	C214.020844,1.000000 427.041779,1.000000 640.531372,1.000001 
z"/>
<path fill="none" opacity="1.000000" stroke="none" 
	d="
M1387.000000,640.531372 
	C1386.333740,640.039185 1385.203735,639.138733 1385.069580,638.108582 
	C1382.326416,617.063049 1380.098389,595.942627 1376.958984,574.958130 
	C1371.070312,535.596924 1360.581299,497.347870 1346.910889,460.029175 
	C1340.077881,441.376282 1332.140015,423.114960 1324.319824,404.839996 
	C1313.000854,378.388550 1299.150146,353.183929 1283.781006,328.947784 
	C1271.093018,308.939636 1257.003296,289.793457 1243.030518,270.633057 
	C1221.470337,241.068085 1196.420044,214.510269 1169.777832,189.573425 
	C1153.280640,174.132111 1135.697266,159.790787 1118.000977,145.710342 
	C1104.280884,134.793564 1090.000977,124.475357 1075.296997,114.927437 
	C1058.178955,103.812004 1040.577271,93.377769 1022.743530,83.441231 
	C984.149353,61.937508 943.555664,44.829975 901.265747,32.207920 
	C876.030457,24.676052 850.276123,18.709110 824.506836,13.200410 
	C806.862915,9.428690 788.807861,7.539138 770.902832,5.050989 
	C763.600281,4.036197 756.203918,3.707403 748.861694,2.954778 
	C747.649963,2.830563 746.497375,2.129154 745.658691,1.347248 
	C959.593689,1.000000 1173.187378,1.000000 1387.000000,1.000000 
	C1387.000000,214.020844 1387.000000,427.041779 1387.000000,640.531372 
z"/>
<path fill="none" opacity="1.000000" stroke="none" 
	d="
M747.468628,1387.000000 
	C747.960876,1386.333740 748.861267,1385.203979 749.891479,1385.069702 
	C770.937012,1382.326904 792.057312,1380.098633 813.041748,1376.959229 
	C852.402893,1371.070312 890.651978,1360.581177 927.970642,1346.910645 
	C946.623474,1340.077637 965.116882,1332.616455 983.095642,1324.187744 
	C1003.491089,1314.626221 1023.783325,1304.592163 1043.109253,1293.067871 
	C1065.371948,1279.792114 1087.129028,1265.476074 1107.988647,1250.096680 
	C1126.938477,1236.125488 1144.760254,1220.538574 1162.384277,1204.881714 
	C1176.406128,1192.424927 1190.126343,1179.457764 1202.635376,1165.510620 
	C1219.454834,1146.757324 1235.757446,1127.424438 1250.834473,1107.258179 
	C1264.891846,1088.456055 1277.716797,1068.637329 1289.855835,1048.524658 
	C1300.824463,1030.351196 1310.862305,1011.522278 1319.970947,992.346069 
	C1329.464478,972.359680 1338.436157,951.986511 1345.672974,931.102295 
	C1354.710327,905.022156 1362.375610,878.414001 1369.408813,851.711426 
	C1373.780151,835.114502 1376.165894,817.966003 1378.920166,800.980408 
	C1381.322266,786.167480 1383.002075,771.237061 1384.978271,756.355530 
	C1385.466064,752.682190 1385.865601,748.997131 1386.652832,745.658691 
	C1387.000000,959.593689 1387.000000,1173.187378 1387.000000,1387.000000 
	C1173.979126,1387.000000 960.958252,1387.000000 747.468628,1387.000000 
z"/>
<path fill="#133D38" opacity="1.000000" stroke="none" 
	d="
M1238.890625,493.042603 
	C1259.259155,548.012146 1271.058105,604.357788 1274.200317,662.528992 
	C1279.796875,766.130981 1259.513428,864.345764 1212.838501,957.013550 
	C1186.257935,1009.785889 1152.097168,1057.196167 1110.804810,1099.472778 
	C1044.967651,1166.879028 967.357239,1215.528564 877.962219,1245.225830 
	C823.060791,1263.464111 766.639282,1273.313354 708.742493,1274.177734 
	C562.632751,1276.359375 432.758545,1231.281250 321.586700,1136.606567 
	C204.700333,1037.065430 137.488068,909.812683 120.508148,757.051025 
	C107.825058,642.946106 127.559113,533.962585 180.450638,432.063904 
	C252.557846,293.145111 363.312775,197.871902 511.334015,146.489288 
	C566.826355,127.226227 624.159424,117.347778 682.874878,116.520683 
	C840.846069,114.295418 978.047424,166.831284 1093.683228,274.481750 
	C1159.294922,335.562561 1207.158691,408.803009 1238.890625,493.042603 
M733.557251,332.985901 
	C713.467529,343.434082 692.831909,352.960449 673.377441,364.481354 
	C554.020386,435.164764 457.112244,529.378052 381.683868,645.631226 
	C344.647888,702.712463 315.769623,763.629150 299.741760,830.084351 
	C289.180481,873.873718 284.603302,918.149963 293.906372,962.763794 
	C308.431641,1032.421021 349.762115,1077.364136 419.052887,1095.367310 
	C455.787292,1104.911621 492.987823,1103.877441 530.153931,1097.951416 
	C587.189392,1088.857300 640.321655,1068.374878 691.165466,1041.637817 
	C769.267883,1000.566284 837.915161,946.898315 899.519348,883.980286 
	C947.745239,834.725891 990.217773,780.981445 1025.106323,721.454163 
	C1063.496582,655.952271 1092.611572,586.980469 1101.222900,510.724182 
	C1104.644897,480.421936 1104.158081,450.139801 1096.791870,420.358704 
	C1082.562622,362.831116 1048.891479,321.961273 992.676880,301.170776 
	C954.436340,287.027893 914.824097,285.921692 874.875916,290.858276 
	C825.697876,296.935486 779.218872,312.318756 733.557251,332.985901 
z"/>
<path fill="#24E5DF" opacity="1.000000" stroke="none" 
	d="
M733.914795,332.857910 
	C779.218872,312.318756 825.697876,296.935486 874.875916,290.858276 
	C914.824097,285.921692 954.436340,287.027893 992.676880,301.170776 
	C1048.891479,321.961273 1082.562622,362.831116 1096.791870,420.358704 
	C1104.158081,450.139801 1104.644897,480.421936 1101.222900,510.724182 
	C1092.611572,586.980469 1063.496582,655.952271 1025.106323,721.454163 
	C990.217773,780.981445 947.745239,834.725891 899.519348,883.980286 
	C837.915161,946.898315 769.267883,1000.566284 691.165466,1041.637817 
	C640.321655,1068.374878 587.189392,1088.857300 530.153931,1097.951416 
	C492.987823,1103.877441 455.787292,1104.911621 419.052887,1095.367310 
	C349.762115,1077.364136 308.431641,1032.421021 293.906372,962.763794 
	C284.603302,918.149963 289.180481,873.873718 299.741760,830.084351 
	C315.769623,763.629150 344.647888,702.712463 381.683868,645.631226 
	C457.112244,529.378052 554.020386,435.164764 673.377441,364.481354 
	C692.831909,352.960449 713.467529,343.434082 733.914795,332.857910 
z"/>
</svg>