<svg width="16" height="16" viewBox="0 0 16 16" fill="none" xmlns="http://www.w3.org/2000/svg">
<path d="M5.12869 0.531127C4.61328 0.729491 4.12343 0.979737 3.66554 1.27546C3.62486 1.30154 3.58446 1.3285 3.54406 1.35542L3.53874 1.35906C3.45878 1.41266 3.38022 1.46791 3.3025 1.52431L3.29634 1.52879C3.25958 1.55543 3.22282 1.58267 3.18666 1.61015L3.17009 1.62251C3.13473 1.64943 3.09937 1.67667 3.06433 1.70415L3.05453 1.71199C3.02225 1.73751 2.99001 1.76307 2.95801 1.78915L2.93977 1.80403C2.90721 1.83039 2.87525 1.85735 2.84325 1.88427L2.81829 1.90559C2.78629 1.93279 2.75433 1.96003 2.72289 1.98779L2.71165 1.99791C1.04902 3.46358 0 5.60934 0 8.00002C0 12.4183 3.58166 16 8.00002 16C12.4184 16 16.0003 12.4184 16.0003 8.00002C16.0003 3.96215 13.0081 0.62345 9.12028 0.0785609L9.12 0.0779994C8.75415 0.0266385 8.38015 0 7.99998 0C6.988 0 6.01974 0.188001 5.12869 0.531127Z" fill="url(#paint0_linear_1418_6932)"/>
<path d="M5.20744 0.735278C4.70579 0.928321 4.22938 1.17157 3.78413 1.45913C3.74429 1.48465 3.70501 1.51077 3.66601 1.53713L3.66069 1.54049C3.58297 1.59269 3.50637 1.64654 3.43093 1.70126L3.42505 1.70574C3.38913 1.73182 3.35348 1.75822 3.31844 1.78486L3.30216 1.79694C3.26764 1.82302 3.23344 1.84942 3.19948 1.87634L3.18968 1.8839C3.15824 1.90858 3.12712 1.93354 3.09596 1.95882L3.078 1.97342C3.04656 1.99922 3.01516 2.02534 2.98428 2.05142L2.95988 2.07218C2.92872 2.09854 2.89788 2.12522 2.86728 2.15214L2.85604 2.16194C1.23885 3.58777 0.21875 5.67461 0.21875 8.00021C0.21875 12.2979 3.70253 15.7819 8.00021 15.7819C12.2979 15.7819 15.7819 12.2979 15.7819 8.00021C15.7819 4.0723 12.8717 0.825081 9.08995 0.294791L9.08967 0.294511C8.73362 0.24459 8.37001 0.21875 8.00025 0.21875C7.01575 0.21875 6.07417 0.401672 5.20724 0.735278H5.20744Z" fill="white"/>
<path d="M8.00205 14.5953C4.35922 14.5953 1.40625 11.6424 1.40625 7.99981C1.40625 4.35727 4.35918 1.4043 8.00205 1.4043C11.6446 1.4043 14.5976 4.35723 14.5976 7.99981C14.5976 11.6424 11.6446 14.5953 8.00205 14.5953Z" fill="url(#paint1_linear_1418_6932)"/>
<path d="M8.11151 2.02246C4.73605 2.02246 2 4.75851 2 8.13397C2 8.99642 2.17872 9.81707 2.50109 10.5611C2.85037 11.5571 3.68759 12.4936 4.92601 13.1468C3.08214 11.6082 3.00078 9.64511 4.38956 8.07929C5.02137 7.36695 6.25139 6.6223 5.19926 5.5124C5.22002 5.55084 5.23322 5.59292 5.23658 5.63948C5.28342 6.28785 3.89267 6.99575 3.82111 5.74132C3.79923 5.3606 3.82111 4.52338 4.90857 3.425C5.99603 2.32687 8.22595 2.02358 8.22595 2.02358L8.11151 2.02246ZM5.78871 5.89845C6.30776 6.83526 5.35862 7.61212 4.82245 8.24453C3.60115 9.68467 3.90163 11.7662 5.33082 12.9544C6.07935 13.5767 7.07005 13.9677 8.26215 13.9779C9.91326 13.9377 11.3983 13.2282 12.4563 12.1104C12.4563 12.1104 10.7202 13.9265 8.08175 13.2776C4.47988 12.3916 5.17509 8.08069 8.39035 8.23529C9.49661 8.28833 10.2309 9.0649 10.2309 9.0649C10.2309 9.0649 10.2945 8.32029 10.0392 7.77768C9.7839 7.23507 9.29461 6.88411 9.29461 6.88411C9.16781 5.61708 8.20407 4.77399 6.94433 4.79167C6.57004 4.79699 5.27638 5.02763 5.11002 4.40954C5.01741 5.04271 5.5679 5.50032 5.78871 5.89845ZM7.92882 6.65682C7.66454 6.65682 7.45018 6.44246 7.45018 6.17817C7.45018 5.91389 7.66454 5.6998 7.92882 5.6998C8.19311 5.6998 8.40719 5.91389 8.40719 6.17817C8.40719 6.44246 8.19315 6.65682 7.92882 6.65682ZM10.3423 10.9158C9.20597 11.4988 8.21307 11.1313 7.71198 10.5468C7.18929 9.93664 7.18201 9.08146 7.8357 8.55429C7.78914 8.56693 7.7431 8.58065 7.69794 8.59553C6.84448 8.8761 6.2828 9.61903 6.24547 10.5168C6.15203 12.7639 8.98516 13.3343 10.9736 12.5952C13.4622 11.6702 14.5488 8.30765 13.7363 5.89649C13.0997 4.00802 11.4379 2.45875 9.02112 2.0909C9.43301 2.1613 10.5109 2.45311 11.6188 3.74565C12.8954 5.23488 12.6401 7.10735 12.5338 7.83064C12.4274 8.55425 11.9591 10.0862 10.3423 10.9158Z" fill="#1F2123"/>
<path d="M11.1128 7.39115L7.63886 3.18379L6.32216 1.50068C6.28064 1.44568 6.29128 1.36628 6.34656 1.32448L6.80669 0.975755C6.86169 0.933954 6.94081 0.945154 6.98261 1.00015L8.22635 2.68775L11.3774 7.19078C11.411 7.23902 11.3953 7.34875 11.3297 7.39839C11.2643 7.44755 11.1501 7.43635 11.1128 7.39115ZM11.445 7.1367L8.85764 2.99279L7.79262 1.18708C7.75922 1.12648 7.78111 1.0496 7.84171 1.01619L8.34727 0.736752C8.4076 0.703351 8.48448 0.725509 8.51784 0.78611L9.48157 2.5949L11.7356 6.97618C11.7625 7.02866 11.7309 7.13498 11.6587 7.17482C11.587 7.21414 11.4761 7.18634 11.445 7.1367Z" fill="#1F2123"/>
<path d="M4.40462 5.98639C4.5665 5.99283 4.7671 5.65478 4.77779 5.38765C4.78815 5.12057 4.5539 4.87985 4.3923 4.87365C4.23041 4.86721 4.20293 5.08293 4.19253 5.35033C4.18213 5.61746 4.24301 5.98023 4.40462 5.98639ZM10.2462 10.0147C10.1887 9.64073 9.58159 9.191 8.8903 9.01032C8.19872 8.82935 7.685 8.98564 7.74224 9.3596C7.79976 9.73333 8.40689 10.1831 9.09822 10.364C9.78975 10.545 10.3035 10.3885 10.2462 10.0147ZM7.58843 3.40718C7.42655 3.40718 7.29523 3.6347 7.29523 3.91555C7.29523 4.19611 7.42655 4.42364 7.58843 4.42364C7.75004 4.42364 7.88136 4.19611 7.88136 3.91555C7.88136 3.6347 7.75008 3.40718 7.58843 3.40718ZM6.01981 3.12354C5.85792 3.12354 5.67052 3.34938 5.67052 3.52418C5.67052 3.69898 5.91405 3.84991 6.07593 3.84991C6.23781 3.84991 6.25661 3.70823 6.25661 3.53342C6.25661 3.35862 6.18169 3.12354 6.01981 3.12354ZM12.5174 4.6136C12.4851 4.45508 12.1092 4.3406 11.8471 4.39392C11.1988 4.52636 11.4151 5.32033 12.0666 5.18737C12.3286 5.13405 12.55 4.77212 12.5174 4.6136ZM12.4299 6.69344C12.3387 6.69344 12.2329 6.82108 12.2329 6.91956C12.2329 7.01832 12.3704 7.1036 12.4616 7.1036C12.553 7.1036 12.5637 7.02364 12.5637 6.92488C12.5637 6.82612 12.5213 6.69344 12.4299 6.69344ZM11.9593 6.95184C11.8749 6.80764 11.4692 6.8208 11.231 6.95996C10.6413 7.30505 11.1168 8.00898 11.7094 7.66249C11.9476 7.52305 12.0435 7.09604 11.9593 6.95184ZM10.7585 9.1952C10.926 9.14216 11.1045 8.78392 11.0927 8.55411C11.0809 8.32435 10.8188 8.20538 10.6514 8.25839C10.4839 8.31143 10.474 8.50387 10.4858 8.73367C10.4976 8.96348 10.5913 9.24824 10.7585 9.1952ZM11.4487 9.17136C11.3575 9.17136 11.2518 9.29872 11.2518 9.39749C11.2518 9.49597 11.3893 9.58125 11.4804 9.58125C11.5719 9.58125 11.5825 9.50129 11.5825 9.40281C11.5825 9.30408 11.5402 9.17136 11.4487 9.17136Z" fill="#1F2123"/>
<path d="M8.00177 14.5956C4.35918 14.5956 1.40625 11.6426 1.40625 8.00011C1.40625 7.9381 1.40737 7.87666 1.40905 7.81494C1.50697 11.3722 4.42118 14.2255 8.00173 14.2255C11.5826 14.2255 14.4968 11.3722 14.5947 7.81494C14.5964 7.87666 14.5975 7.9381 14.5975 8.00011C14.5976 11.6426 11.6446 14.5956 8.00177 14.5956Z" fill="url(#paint2_linear_1418_6932)"/>
<defs>
<linearGradient id="paint0_linear_1418_6932" x1="6.71857" y1="15.0358" x2="9.37068" y2="0.568872" gradientUnits="userSpaceOnUse">
<stop stop-color="#FCCD15"/>
<stop offset="0.2706" stop-color="#FC941A"/>
<stop offset="0.6118" stop-color="#FC3E28"/>
<stop offset="1" stop-color="#9D1432"/>
</linearGradient>
<linearGradient id="paint1_linear_1418_6932" x1="7.02505" y1="2.641" x2="9.21154" y2="14.5681" gradientUnits="userSpaceOnUse">
<stop stop-color="#FCCD15"/>
<stop offset="0.2706" stop-color="#FC941A"/>
<stop offset="0.6118" stop-color="#FC3E28"/>
<stop offset="1" stop-color="#9D1432"/>
</linearGradient>
<linearGradient id="paint2_linear_1418_6932" x1="8.15687" y1="14.9362" x2="7.92126" y2="3.9201" gradientUnits="userSpaceOnUse">
<stop stop-color="#FCB317"/>
<stop offset="0.451" stop-color="#FF7E70"/>
<stop offset="1" stop-color="#9D1432"/>
</linearGradient>
</defs>
</svg>
