<?xml version="1.0" encoding="UTF-8"?>
<svg xmlns="http://www.w3.org/2000/svg" xmlns:xlink="http://www.w3.org/1999/xlink" width="32px" height="38px" viewBox="0 0 32 37" version="1.1">
<defs>
<linearGradient id="linear0" gradientUnits="userSpaceOnUse" x1="18.9869" y1="14.6893" x2="25.1981" y2="48.4225" gradientTransform="matrix(0.727273,0,0,0.711538,0,0)">
<stop offset="0" style="stop-color:rgb(98.823529%,80.392157%,8.235294%);stop-opacity:1;"/>
<stop offset="0.2706" style="stop-color:rgb(98.823529%,58.039216%,10.196078%);stop-opacity:1;"/>
<stop offset="0.6118" style="stop-color:rgb(98.823529%,24.313725%,15.686275%);stop-opacity:1;"/>
<stop offset="1" style="stop-color:rgb(61.568627%,7.843137%,19.607843%);stop-opacity:1;"/>
</linearGradient>
</defs>
<g id="surface1">
<path style=" stroke:none;fill-rule:nonzero;fill:rgb(100%,100%,100%);fill-opacity:1;" d="M 15.960938 5.636719 C 7.148438 5.636719 0 12.652344 0 21.324219 C 0 29.984375 7.148438 37 15.960938 37 C 24.773438 37 31.921875 29.984375 31.921875 21.324219 C 31.921875 12.652344 24.773438 5.636719 15.960938 5.636719 Z M 15.808594 16.464844 C 15.242188 16.464844 14.785156 16.921875 14.785156 17.476562 C 14.785156 18.03125 15.242188 18.492188 15.808594 18.492188 C 16.371094 18.492188 16.835938 18.03125 16.835938 17.476562 C 16.835938 16.921875 16.371094 16.464844 15.808594 16.464844 Z M 18.15625 8.859375 C 23.332031 9.632812 26.902344 12.902344 28.265625 16.878906 C 30.015625 21.964844 27.679688 29.058594 22.347656 31.007812 C 18.078125 32.566406 11.992188 31.367188 12.191406 26.628906 C 12.28125 24.734375 13.480469 23.164062 15.320312 22.574219 C 15.40625 22.542969 15.507812 22.511719 15.605469 22.488281 C 14.210938 23.597656 14.222656 25.398438 15.339844 26.683594 C 16.417969 27.925781 18.546875 28.699219 20.984375 27.46875 C 24.453125 25.714844 25.460938 22.488281 25.695312 20.964844 C 25.917969 19.4375 26.46875 15.484375 23.722656 12.347656 C 21.347656 9.621094 19.03125 9 18.15625 8.859375 Z M 9.765625 13.75 C 10.121094 15.046875 12.890625 14.570312 13.699219 14.558594 C 16.40625 14.515625 18.464844 16.289062 18.742188 18.96875 C 18.742188 18.96875 19.785156 19.710938 20.339844 20.855469 C 20.882812 22 20.75 23.566406 20.75 23.566406 C 20.75 23.566406 19.175781 21.921875 16.804688 21.8125 C 9.898438 21.488281 8.414062 30.582031 16.140625 32.445312 C 21.804688 33.820312 25.527344 29.984375 25.527344 29.984375 C 23.253906 32.347656 20.0625 33.839844 16.527344 33.925781 C 13.964844 33.90625 11.839844 33.078125 10.230469 31.769531 C 7.171875 29.265625 6.527344 24.875 9.144531 21.835938 C 10.296875 20.496094 12.324219 18.859375 11.21875 16.890625 C 10.742188 16.050781 9.566406 15.082031 9.765625 13.75 Z M 3.09375 21.59375 C 3.09375 14.480469 8.957031 8.71875 16.207031 8.71875 L 16.449219 8.71875 C 16.449219 8.71875 11.660156 9.351562 9.332031 11.671875 C 6.992188 13.992188 6.949219 15.757812 6.992188 16.550781 C 7.027344 17.152344 7.402344 17.925781 8.222656 18.164062 C 8.367188 18.078125 8.523438 18 8.679688 17.925781 C 9.476562 17.542969 10.085938 17.085938 10.03125 16.34375 C 10.03125 16.246094 9.996094 16.148438 9.953125 16.070312 C 12.214844 18.414062 9.566406 19.984375 8.214844 21.488281 C 5.230469 24.789062 5.410156 28.925781 9.367188 32.171875 C 6.707031 30.789062 4.910156 28.816406 4.167969 26.714844 C 3.46875 25.148438 3.09375 23.414062 3.09375 21.59375 Z M 3.09375 21.59375 "/>
<path style=" stroke:none;fill-rule:nonzero;fill:rgb(100%,100%,100%);fill-opacity:1;" d="M 11.707031 1.933594 C 11.726562 1.453125 11.996094 0.996094 12.460938 0.746094 L 13.492188 0.179688 C 14.199219 -0.203125 15.097656 0.046875 15.496094 0.746094 L 16.484375 2.519531 L 24.785156 18.371094 C 25.152344 19.066406 24.828125 19.984375 24.132812 20.355469 C 24.042969 20.40625 23.953125 20.441406 23.867188 20.472656 C 23.789062 20.5625 23.699219 20.648438 23.601562 20.714844 C 22.980469 21.179688 21.980469 21.117188 21.480469 20.496094 L 9.191406 5.386719 L 7.503906 3.195312 C 7.007812 2.5625 7.140625 1.648438 7.78125 1.167969 L 8.722656 0.472656 C 9.378906 -0.0195312 10.296875 0.113281 10.785156 0.746094 Z M 11.707031 1.933594 "/>
<path style=" stroke:none;fill-rule:nonzero;fill:url(#linear0);" d="M 15.960938 34.613281 C 8.488281 34.613281 2.4375 28.667969 2.4375 21.324219 C 2.4375 13.980469 8.488281 8.023438 15.960938 8.023438 C 23.429688 8.023438 29.496094 13.980469 29.496094 21.324219 C 29.496094 28.667969 23.429688 34.613281 15.960938 34.613281 Z M 15.960938 34.613281 "/>
<path style=" stroke:none;fill-rule:nonzero;fill:rgb(12.156863%,12.941176%,13.72549%);fill-opacity:1;" d="M 15.074219 13.773438 C 15.421875 13.773438 15.707031 13.296875 15.707031 12.707031 C 15.707031 12.117188 15.421875 11.636719 15.074219 11.636719 C 14.726562 11.636719 14.441406 12.117188 14.441406 12.707031 C 14.441406 13.296875 14.726562 13.773438 15.074219 13.773438 Z M 15.074219 13.773438 "/>
<path style=" stroke:none;fill-rule:nonzero;fill:rgb(12.156863%,12.941176%,13.72549%);fill-opacity:1;" d="M 20.785156 25.570312 C 20.664062 24.777344 19.355469 23.828125 17.871094 23.449219 C 16.382812 23.066406 15.285156 23.394531 15.410156 24.1875 C 15.53125 24.972656 16.839844 25.921875 18.324219 26.300781 C 19.796875 26.683594 20.90625 26.355469 20.785156 25.570312 Z M 20.785156 25.570312 "/>
<path style=" stroke:none;fill-rule:nonzero;fill:rgb(12.156863%,12.941176%,13.72549%);fill-opacity:1;" d="M 11.71875 11.039062 C 11.363281 11.039062 10.964844 11.507812 10.964844 11.878906 C 10.964844 12.25 11.484375 12.5625 11.839844 12.5625 C 12.183594 12.5625 12.226562 12.269531 12.226562 11.898438 C 12.226562 11.527344 12.058594 11.039062 11.71875 11.039062 Z M 11.71875 11.039062 "/>
<path style=" stroke:none;fill-rule:nonzero;fill:rgb(12.156863%,12.941176%,13.72549%);fill-opacity:1;" d="M 21.878906 23.839844 C 22.234375 23.730469 22.625 22.96875 22.601562 22.488281 C 22.566406 22 22.015625 21.75 21.648438 21.867188 C 21.292969 21.976562 21.269531 22.378906 21.292969 22.871094 C 21.316406 23.351562 21.527344 23.949219 21.878906 23.839844 Z M 21.878906 23.839844 "/>
<path style=" stroke:none;fill-rule:nonzero;fill:rgb(12.156863%,12.941176%,13.72549%);fill-opacity:1;" d="M 25.648438 14.175781 C 25.582031 13.839844 24.773438 13.597656 24.21875 13.71875 C 22.824219 13.992188 23.289062 15.667969 24.683594 15.386719 C 25.25 15.277344 25.726562 14.515625 25.648438 14.175781 Z M 25.648438 14.175781 "/>
<path style=" stroke:none;fill-rule:nonzero;fill:rgb(12.156863%,12.941176%,13.72549%);fill-opacity:1;" d="M 17.714844 9.839844 C 17.515625 9.839844 17.28125 10.101562 17.28125 10.308594 C 17.28125 10.515625 17.582031 10.703125 17.78125 10.703125 C 17.96875 10.703125 17.992188 10.527344 17.992188 10.320312 C 17.992188 10.113281 17.902344 9.839844 17.714844 9.839844 Z M 17.714844 9.839844 "/>
<path style=" stroke:none;fill-rule:nonzero;fill:rgb(12.156863%,12.941176%,13.72549%);fill-opacity:1;" d="M 16.207031 8.71875 C 8.957031 8.71875 3.09375 14.480469 3.09375 21.59375 C 3.09375 23.414062 3.46875 25.148438 4.167969 26.714844 C 4.910156 28.816406 6.707031 30.789062 9.367188 32.171875 C 5.410156 28.925781 5.234375 24.789062 8.214844 21.488281 C 9.566406 19.984375 12.214844 18.414062 9.953125 16.070312 C 10 16.148438 10.03125 16.246094 10.03125 16.34375 C 10.132812 17.707031 7.152344 19.199219 6.996094 16.550781 C 6.953125 15.757812 6.996094 13.992188 9.335938 11.671875 C 11.664062 9.351562 16.449219 8.71875 16.449219 8.71875 Z M 16.207031 8.71875 "/>
<path style=" stroke:none;fill-rule:nonzero;fill:rgb(12.156863%,12.941176%,13.72549%);fill-opacity:1;" d="M 11.21875 16.890625 C 12.328125 18.859375 10.296875 20.496094 9.144531 21.835938 C 6.53125 24.875 7.171875 29.265625 10.230469 31.769531 C 11.839844 33.078125 13.96875 33.90625 16.527344 33.925781 C 20.0625 33.839844 23.257812 32.347656 25.527344 29.984375 C 25.527344 29.984375 21.804688 33.820312 16.140625 32.445312 C 8.414062 30.582031 9.898438 21.488281 16.804688 21.8125 C 19.175781 21.921875 20.75 23.566406 20.75 23.566406 C 20.75 23.566406 20.882812 22 20.339844 20.855469 C 19.785156 19.710938 18.746094 18.96875 18.746094 18.96875 C 18.46875 16.289062 16.40625 14.515625 13.699219 14.558594 C 12.890625 14.570312 10.121094 15.046875 9.765625 13.753906 C 9.566406 15.082031 10.742188 16.050781 11.21875 16.890625 Z M 15.808594 18.492188 C 15.242188 18.492188 14.789062 18.035156 14.789062 17.476562 C 14.789062 16.921875 15.242188 16.464844 15.808594 16.464844 C 16.371094 16.464844 16.839844 16.921875 16.839844 17.476562 C 16.839844 18.035156 16.371094 18.492188 15.808594 18.492188 Z M 15.808594 18.492188 "/>
<path style=" stroke:none;fill-rule:nonzero;fill:rgb(12.156863%,12.941176%,13.72549%);fill-opacity:1;" d="M 20.984375 27.46875 C 18.546875 28.699219 16.417969 27.925781 15.34375 26.683594 C 14.222656 25.398438 14.210938 23.601562 15.609375 22.488281 C 15.507812 22.511719 15.410156 22.542969 15.320312 22.578125 C 13.480469 23.164062 12.28125 24.734375 12.195312 26.628906 C 11.996094 31.367188 18.078125 32.566406 22.347656 31.007812 C 27.679688 29.058594 30.019531 21.964844 28.265625 16.878906 C 26.902344 12.902344 23.332031 9.636719 18.15625 8.859375 C 19.03125 9.003906 21.347656 9.625 23.722656 12.347656 C 26.46875 15.484375 25.917969 19.4375 25.695312 20.964844 C 25.460938 22.488281 24.453125 25.714844 20.984375 27.46875 Z M 20.984375 27.46875 "/>
<path style=" stroke:none;fill-rule:nonzero;fill:rgb(12.156863%,12.941176%,13.72549%);fill-opacity:1;" d="M 22.421875 19.753906 L 10.140625 4.644531 L 8.46875 2.476562 C 8.378906 2.367188 8.402344 2.203125 8.511719 2.117188 L 9.453125 1.417969 C 9.578125 1.332031 9.730469 1.355469 9.820312 1.464844 L 11.496094 3.640625 L 22.964844 19.339844 C 23.042969 19.4375 23.011719 19.667969 22.867188 19.765625 C 22.734375 19.863281 22.5 19.839844 22.421875 19.753906 Z M 23.109375 19.230469 L 13.933594 3.882812 L 12.945312 2.136719 C 12.878906 2.007812 12.925781 1.855469 13.046875 1.789062 L 14.078125 1.222656 C 14.210938 1.15625 14.363281 1.203125 14.429688 1.320312 L 15.417969 3.074219 L 23.710938 18.914062 C 23.765625 19.011719 23.699219 19.230469 23.542969 19.316406 C 23.398438 19.394531 23.167969 19.339844 23.109375 19.230469 Z M 23.109375 19.230469 "/>
<path style=" stroke:none;fill-rule:nonzero;fill:rgb(12.156863%,12.941176%,13.72549%);fill-opacity:1;" d="M 8.246094 17.074219 C 8.589844 17.085938 9.023438 16.378906 9.042969 15.8125 C 9.066406 15.246094 8.566406 14.742188 8.222656 14.722656 C 7.871094 14.710938 7.8125 15.167969 7.792969 15.734375 C 7.769531 16.289062 7.902344 17.0625 8.246094 17.074219 Z M 8.246094 17.074219 "/>
<path style=" stroke:none;fill-rule:nonzero;fill:rgb(12.156863%,12.941176%,13.72549%);fill-opacity:1;" d="M 25.460938 18.566406 C 25.273438 18.566406 25.042969 18.828125 25.042969 19.035156 C 25.042969 19.253906 25.339844 19.429688 25.539062 19.429688 C 25.726562 19.429688 25.75 19.265625 25.75 19.046875 C 25.75 18.839844 25.660156 18.566406 25.460938 18.566406 Z M 25.460938 18.566406 "/>
<path style=" stroke:none;fill-rule:nonzero;fill:rgb(12.156863%,12.941176%,13.72549%);fill-opacity:1;" d="M 23.355469 23.785156 C 23.167969 23.785156 22.933594 24.058594 22.933594 24.265625 C 22.933594 24.472656 23.234375 24.65625 23.433594 24.65625 C 23.621094 24.65625 23.644531 24.480469 23.644531 24.273438 C 23.644531 24.066406 23.554688 23.785156 23.355469 23.785156 Z M 23.355469 23.785156 "/>
<path style=" stroke:none;fill-rule:nonzero;fill:rgb(12.156863%,12.941176%,13.72549%);fill-opacity:1;" d="M 24.453125 19.113281 C 24.273438 18.808594 23.398438 18.828125 22.890625 19.121094 C 21.625 19.851562 22.644531 21.335938 23.921875 20.605469 C 24.429688 20.308594 24.640625 19.417969 24.453125 19.113281 Z M 24.453125 19.113281 "/>
</g>
</svg>
