<svg width="16" height="16" viewBox="0 0 16 16" fill="none" xmlns="http://www.w3.org/2000/svg">
    <path d="M5.12869 0.531127C4.61328 0.729491 4.12343 0.979737 3.66554 1.27546C3.62486 1.30154 3.58446 1.3285 3.54406 1.35542L3.53874 1.35906C3.45878 1.41266 3.38022 1.46791 3.3025 1.52431L3.29634 1.52879C3.25958 1.55543 3.22282 1.58267 3.18666 1.61015L3.17009 1.62251C3.13473 1.64943 3.09937 1.67667 3.06433 1.70415L3.05453 1.71199C3.02225 1.73751 2.99001 1.76307 2.95801 1.78915L2.93977 1.80403C2.90721 1.83039 2.87525 1.85735 2.84325 1.88427L2.81829 1.90559C2.78629 1.93279 2.75433 1.96003 2.72289 1.98779L2.71165 1.99791C1.04902 3.46358 0 5.60934 0 8.00002C0 12.4183 3.58166 16 8.00002 16C12.4184 16 16.0003 12.4184 16.0003 8.00002C16.0003 3.96215 13.0081 0.62345 9.12028 0.0785609L9.12 0.0779994C8.75415 0.0266385 8.38015 0 7.99998 0C6.988 0 6.01974 0.188001 5.12869 0.531127Z"
          fill="url(#paint0_linear_1418_7822)"/>
    <path d="M5.20744 0.735278C4.70579 0.928321 4.22938 1.17157 3.78413 1.45913C3.74429 1.48465 3.70501 1.51077 3.66601 1.53713L3.66069 1.54049C3.58297 1.59269 3.50637 1.64654 3.43093 1.70126L3.42505 1.70574C3.38913 1.73182 3.35348 1.75822 3.31844 1.78486L3.30216 1.79694C3.26764 1.82302 3.23344 1.84942 3.19948 1.87634L3.18968 1.8839C3.15824 1.90858 3.12712 1.93354 3.09596 1.95882L3.078 1.97342C3.04656 1.99922 3.01516 2.02534 2.98428 2.05142L2.95988 2.07218C2.92872 2.09854 2.89788 2.12522 2.86728 2.15214L2.85604 2.16194C1.23885 3.58777 0.21875 5.67461 0.21875 8.00021C0.21875 12.2979 3.70253 15.7819 8.00021 15.7819C12.2979 15.7819 15.7819 12.2979 15.7819 8.00021C15.7819 4.0723 12.8717 0.825081 9.08995 0.294791L9.08967 0.294511C8.73362 0.24459 8.37001 0.21875 8.00025 0.21875C7.01575 0.21875 6.07417 0.401672 5.20724 0.735278H5.20744Z"
          fill="white"/>
    <path d="M8.00205 14.5953C4.35922 14.5953 1.40625 11.6424 1.40625 7.99981C1.40625 4.35727 4.35918 1.4043 8.00205 1.4043C11.6446 1.4043 14.5976 4.35723 14.5976 7.99981C14.5976 11.6424 11.6446 14.5953 8.00205 14.5953Z"
          fill="url(#paint1_linear_1418_7822)"/>
    <path d="M8.11151 2.02246C4.73605 2.02246 2 4.75851 2 8.13397C2 8.99642 2.17872 9.81707 2.50109 10.5611C2.85037 11.5571 3.68759 12.4936 4.92601 13.1468C3.08214 11.6082 3.00078 9.64511 4.38956 8.07929C5.02137 7.36695 6.25139 6.6223 5.19926 5.5124C5.22002 5.55084 5.23322 5.59292 5.23658 5.63948C5.28342 6.28785 3.89267 6.99575 3.82111 5.74132C3.79923 5.3606 3.82111 4.52338 4.90857 3.425C5.99603 2.32687 8.22595 2.02358 8.22595 2.02358L8.11151 2.02246ZM5.78871 5.89845C6.30776 6.83526 5.35862 7.61212 4.82245 8.24453C3.60115 9.68467 3.90163 11.7662 5.33082 12.9544C6.07935 13.5767 7.07005 13.9677 8.26215 13.9779C9.91326 13.9377 11.3983 13.2282 12.4563 12.1104C12.4563 12.1104 10.7202 13.9265 8.08175 13.2776C4.47988 12.3916 5.17509 8.08069 8.39035 8.23529C9.49661 8.28833 10.2309 9.0649 10.2309 9.0649C10.2309 9.0649 10.2945 8.32029 10.0392 7.77768C9.7839 7.23507 9.29461 6.88411 9.29461 6.88411C9.16781 5.61708 8.20407 4.77399 6.94433 4.79167C6.57004 4.79699 5.27638 5.02763 5.11002 4.40954C5.01741 5.04271 5.5679 5.50032 5.78871 5.89845ZM7.92882 6.65682C7.66454 6.65682 7.45018 6.44246 7.45018 6.17817C7.45018 5.91389 7.66454 5.6998 7.92882 5.6998C8.19311 5.6998 8.40719 5.91389 8.40719 6.17817C8.40719 6.44246 8.19315 6.65682 7.92882 6.65682ZM10.3423 10.9158C9.20597 11.4988 8.21307 11.1313 7.71198 10.5468C7.18929 9.93664 7.18201 9.08146 7.8357 8.55429C7.78914 8.56693 7.7431 8.58065 7.69794 8.59553C6.84448 8.8761 6.2828 9.61903 6.24547 10.5168C6.15203 12.7639 8.98516 13.3343 10.9736 12.5952C13.4622 11.6702 14.5488 8.30765 13.7363 5.89649C13.0997 4.00802 11.4379 2.45875 9.02112 2.0909C9.43301 2.1613 10.5109 2.45311 11.6188 3.74565C12.8954 5.23488 12.6401 7.10735 12.5338 7.83064C12.4274 8.55425 11.9591 10.0862 10.3423 10.9158Z"
          fill="#1F2123"/>
    <path d="M11.1128 7.39164L7.63886 3.18428L6.32216 1.50117C6.28064 1.44617 6.29128 1.36677 6.34656 1.32497L6.80669 0.976243C6.86169 0.934442 6.94081 0.945642 6.98261 1.00064L8.22635 2.68823L11.3774 7.19127C11.411 7.23951 11.3953 7.34923 11.3297 7.39887C11.2643 7.44804 11.1501 7.43684 11.1128 7.39164ZM11.445 7.13719L8.85764 2.99328L7.79262 1.18757C7.75922 1.12697 7.78111 1.05008 7.84171 1.01668L8.34727 0.73724C8.4076 0.703839 8.48448 0.725998 8.51784 0.786599L9.48157 2.59539L11.7356 6.97667C11.7625 7.02915 11.7309 7.13547 11.6587 7.17531C11.587 7.21463 11.4761 7.18683 11.445 7.13719Z"
          fill="#1F2123"/>
    <path d="M4.40071 5.9859C4.56259 5.99234 4.7632 5.65429 4.77388 5.38717C4.78424 5.12008 4.54999 4.87936 4.38839 4.87316C4.22651 4.86672 4.19903 5.08244 4.18863 5.34985C4.17823 5.61697 4.23911 5.97974 4.40071 5.9859ZM10.2423 10.0142C10.1848 9.64024 9.57768 9.19051 8.88639 9.00983C8.19482 8.82887 7.68109 8.98515 7.73833 9.35912C7.79585 9.73284 8.40298 10.1826 9.09431 10.3635C9.78585 10.5445 10.2996 10.388 10.2423 10.0142ZM7.58453 3.40669C7.42264 3.40669 7.29132 3.63422 7.29132 3.91506C7.29132 4.19563 7.42264 4.42315 7.58453 4.42315C7.74613 4.42315 7.87745 4.19563 7.87745 3.91506C7.87745 3.63422 7.74617 3.40669 7.58453 3.40669ZM6.0159 3.12305C5.85402 3.12305 5.66661 3.34889 5.66661 3.52369C5.66661 3.6985 5.91014 3.84942 6.07202 3.84942C6.2339 3.84942 6.2527 3.70774 6.2527 3.53293C6.2527 3.35813 6.17778 3.12305 6.0159 3.12305ZM12.5135 4.61311C12.4812 4.45459 12.1053 4.34011 11.8432 4.39343C11.1949 4.52587 11.4112 5.31985 12.0626 5.18688C12.3247 5.13356 12.5461 4.77163 12.5135 4.61311ZM12.426 6.69295C12.3348 6.69295 12.229 6.82059 12.229 6.91907C12.229 7.01783 12.3665 7.10312 12.4577 7.10312C12.5491 7.10312 12.5598 7.02315 12.5598 6.92439C12.5598 6.82563 12.5174 6.69295 12.426 6.69295ZM11.9554 6.95135C11.871 6.80715 11.4653 6.82031 11.2271 6.95947C10.6374 7.30456 11.1129 8.00849 11.7055 7.66201C11.9437 7.52256 12.0396 7.09556 11.9554 6.95135ZM10.7546 9.19471C10.9221 9.14167 11.1005 8.78343 11.0888 8.55362C11.077 8.32386 10.8149 8.2049 10.6475 8.2579C10.48 8.31094 10.4701 8.50338 10.4819 8.73318C10.4937 8.96299 10.5874 9.24775 10.7546 9.19471ZM11.4448 9.17087C11.3536 9.17087 11.2479 9.29824 11.2479 9.397C11.2479 9.49548 11.3854 9.58076 11.4765 9.58076C11.568 9.58076 11.5786 9.5008 11.5786 9.40232C11.5786 9.3036 11.5363 9.17087 11.4448 9.17087Z"
          fill="#1F2123"/>
    <path d="M8.00177 14.5951C4.35918 14.5951 1.40625 11.6422 1.40625 7.99962C1.40625 7.93762 1.40737 7.87617 1.40905 7.81445C1.50697 11.3717 4.42118 14.225 8.00173 14.225C11.5826 14.225 14.4968 11.3717 14.5947 7.81445C14.5964 7.87617 14.5975 7.93762 14.5975 7.99962C14.5976 11.6422 11.6446 14.5951 8.00177 14.5951Z"
          fill="url(#paint2_linear_1418_7822)"/>
<defs>
    <linearGradient id="paint0_linear_1418_7822" x1="6.71857" y1="15.0358" x2="9.37068" y2="0.568872"
                    gradientUnits="userSpaceOnUse">
        <stop stop-color="#FCCD15"/>
        <stop offset="0.2706" stop-color="#FC941A"/>
        <stop offset="0.6118" stop-color="#FC3E28"/>
        <stop offset="1" stop-color="#9D1432"/>
    </linearGradient>
    <linearGradient id="paint1_linear_1418_7822" x1="7.02505" y1="2.641" x2="9.21154" y2="14.5681"
                    gradientUnits="userSpaceOnUse">
        <stop stop-color="#FCCD15"/>
        <stop offset="0.2706" stop-color="#FC941A"/>
        <stop offset="0.6118" stop-color="#FC3E28"/>
        <stop offset="1" stop-color="#9D1432"/>
    </linearGradient>
    <linearGradient id="paint2_linear_1418_7822" x1="8.15687" y1="14.9358" x2="7.92126" y2="3.91961"
                    gradientUnits="userSpaceOnUse">
        <stop stop-color="#FCB317"/>
        <stop offset="0.451" stop-color="#FF7E70"/>
        <stop offset="1" stop-color="#9D1432"/>
</linearGradient>
</defs>
</svg>
