<?xml version="1.0" encoding="UTF-8"?>
<!DOCTYPE svg PUBLIC "-//W3C//DTD SVG 1.1//EN" "http://www.w3.org/Graphics/SVG/1.1/DTD/svg11.dtd">
<svg xmlns="http://www.w3.org/2000/svg" version="1.1" width="500px" height="500px" style="shape-rendering:geometricPrecision; text-rendering:geometricPrecision; image-rendering:optimizeQuality; fill-rule:evenodd; clip-rule:evenodd" xmlns:xlink="http://www.w3.org/1999/xlink">
<g><path style="opacity:0.991" fill="#f8a60f" d="M 227.5,-0.5 C 242.167,-0.5 256.833,-0.5 271.5,-0.5C 354.8,9.21286 418.966,49.2129 464,119.5C 483.779,153.002 495.612,189.002 499.5,227.5C 499.5,242.167 499.5,256.833 499.5,271.5C 489.787,354.8 449.787,418.966 379.5,464C 345.998,483.779 309.998,495.612 271.5,499.5C 256.833,499.5 242.167,499.5 227.5,499.5C 144.2,489.787 80.0338,449.787 35,379.5C 15.221,345.998 3.38767,309.998 -0.5,271.5C -0.5,256.833 -0.5,242.167 -0.5,227.5C 9.21286,144.2 49.2129,80.0338 119.5,35C 153.002,15.221 189.002,3.38767 227.5,-0.5 Z"/></g>
<g><path style="opacity:1" fill="#000000" d="M 231.5,34.5 C 307.144,31.0849 369.31,58.0849 418,115.5C 460.955,172.861 473.955,236.528 457,306.5C 439.575,365.863 403.742,410.363 349.5,440C 271.029,477.51 195.696,472.177 123.5,424C 60.5062,375.093 31.0062,310.593 35,230.5C 44.3773,154.863 81.8773,98.0294 147.5,60C 174.096,46.3944 202.096,37.8944 231.5,34.5 Z"/></g>
<g><path style="opacity:1" fill="#474747" d="M 227.5,94.5 C 227.5,105.5 227.5,116.5 227.5,127.5C 226.167,127.5 224.833,127.5 223.5,127.5C 224.209,126.596 225.209,126.263 226.5,126.5C 226.172,115.654 226.506,104.987 227.5,94.5 Z"/></g>
<g><path style="opacity:1" fill="#fdfdfd" d="M 271.5,94.5 C 270.856,106.216 271.522,117.549 273.5,128.5C 297.639,132.806 316.806,144.806 331,164.5C 338.285,176.854 341.785,190.187 341.5,204.5C 325.5,204.5 309.5,204.5 293.5,204.5C 292.728,189.959 285.728,179.625 272.5,173.5C 271.334,193.492 271.167,213.492 272,233.5C 289.414,236.194 305.914,241.694 321.5,250C 337.305,259.754 346.471,273.92 349,292.5C 351.482,336.366 331.649,364.533 289.5,377C 283.707,378.603 277.874,379.769 272,380.5C 271.5,388.827 271.334,397.16 271.5,405.5C 256.833,405.5 242.167,405.5 227.5,405.5C 227.5,396.833 227.5,388.167 227.5,379.5C 207.397,377.615 189.397,370.448 173.5,358C 157.243,342.745 149.243,323.912 149.5,301.5C 165.514,301.167 181.514,301.501 197.5,302.5C 199.794,319.813 209.127,331.147 225.5,336.5C 225.56,337.043 225.893,337.376 226.5,337.5C 227.828,315.337 227.828,293.337 226.5,271.5C 207.308,268.494 189.641,261.66 173.5,251C 158.954,237.199 152.288,220.199 153.5,200C 154.417,170.818 167.751,149.485 193.5,136C 202.909,131.03 212.909,128.196 223.5,127.5C 224.833,127.5 226.167,127.5 227.5,127.5C 227.5,116.5 227.5,105.5 227.5,94.5C 242.167,93.1667 256.833,93.1667 271.5,94.5 Z"/></g>
<g><path style="opacity:1" fill="#414141" d="M 271.5,94.5 C 272.187,105.735 272.853,117.068 273.5,128.5C 271.522,117.549 270.856,106.216 271.5,94.5 Z"/></g>
<g><path style="opacity:1" fill="#3f3f3f" d="M 224.5,170.5 C 225.209,169.596 226.209,169.263 227.5,169.5C 227.83,187.341 227.497,205.008 226.5,222.5C 227.153,204.801 226.486,187.468 224.5,170.5 Z"/></g>
<g><path style="opacity:1" fill="#020202" d="M 224.5,170.5 C 226.486,187.468 227.153,204.801 226.5,222.5C 216.171,220.924 208.005,215.924 202,207.5C 197.262,187.736 204.762,175.403 224.5,170.5 Z"/></g>
<g><path style="opacity:1" fill="#414141" d="M 226.5,271.5 C 227.828,293.337 227.828,315.337 226.5,337.5C 225.893,337.376 225.56,337.043 225.5,336.5C 226.497,315.006 226.831,293.34 226.5,271.5 Z"/></g>
<g><path style="opacity:1" fill="#9f9f9f" d="M 274.5,282.5 C 272.513,300.47 271.846,318.803 272.5,337.5C 271.503,319.007 271.17,300.341 271.5,281.5C 272.791,281.263 273.791,281.596 274.5,282.5 Z"/></g>
<g><path style="opacity:1" fill="#030303" d="M 274.5,282.5 C 281.535,284.85 288.201,288.017 294.5,292C 303.599,303.269 303.766,314.769 295,326.5C 288.756,332.705 281.256,336.372 272.5,337.5C 271.846,318.803 272.513,300.47 274.5,282.5 Z"/></g>
</svg>
