<svg width="32" height="32" viewBox="0 0 32 32" fill="none" xmlns="http://www.w3.org/2000/svg">
<g clip-path="url(#clip0_0_1064)">
<path d="M16 32C24.8366 32 32 24.8366 32 16C32 7.16344 24.8366 0 16 0C7.16344 0 0 7.16344 0 16C0 24.8366 7.16344 32 16 32Z" fill="black"/>
<path d="M23.131 9.2079L20.731 10.4319L9.133 16.3389C8.96776 15.0695 9.15843 13.7791 9.68376 12.6118C10.2091 11.4444 11.0484 10.4459 12.1081 9.72777C13.1678 9.0096 14.4062 8.59995 15.6851 8.54453C16.964 8.4891 18.2332 8.79009 19.351 9.4139L20.725 8.7139L20.93 8.6089C19.6265 7.66299 18.0796 7.10982 16.4718 7.01473C14.8641 6.91963 13.2627 7.28657 11.8568 8.07223C10.4509 8.85788 9.2992 10.0294 8.53764 11.4485C7.77608 12.8676 7.4365 14.475 7.559 16.0809C7.58192 16.3829 7.51497 16.685 7.36656 16.9491C7.21815 17.2132 6.99493 17.4274 6.725 17.5649L6 17.9349V19.6589L8.134 18.5709L8.825 18.2179L9.506 17.8709L21.732 11.6409L23.106 10.9419L25.946 9.4949V7.7719L23.131 9.2079ZM25.947 11.2199L10.202 19.2359L8.828 19.9359L6.001 21.3789V23.1019L8.809 21.6719L11.21 20.4479L22.82 14.5319C22.9878 15.8033 22.7984 17.0962 22.2731 18.266C21.7477 19.4359 20.9072 20.4364 19.8455 21.1557C18.7839 21.875 17.543 22.2846 16.2617 22.3386C14.9805 22.3927 13.7095 22.0891 12.591 21.4619L12.506 21.5069L11.016 22.2669C12.3197 23.2133 13.867 23.7668 15.4752 23.862C17.0834 23.9572 18.6853 23.59 20.0915 22.8039C21.4977 22.0179 22.6495 20.8457 23.4109 19.4259C24.1722 18.0062 24.5113 16.3982 24.388 14.7919C24.3653 14.4901 24.4323 14.1884 24.5805 13.9246C24.7287 13.6607 24.9515 13.4465 25.221 13.3089L25.947 12.9389V11.2209V11.2199Z" fill="white"/>
</g>
<defs>
<clipPath id="clip0_0_1064">
<rect width="32" height="32" fill="white"/>
</clipPath>
</defs>
</svg>
