<svg width="20" height="20" viewBox="0 0 20 20" fill="none" xmlns="http://www.w3.org/2000/svg">
<path d="M10.0004 6.25015C9.25871 6.25015 8.53369 6.47008 7.917 6.88214C7.30032 7.29419 6.81967 7.87986 6.53584 8.56509C6.25202 9.25031 6.17775 10.0043 6.32245 10.7317C6.46714 11.4592 6.8243 12.1274 7.34874 12.6518C7.87319 13.1762 8.54138 13.5334 9.2688 13.6781C9.99623 13.8228 10.7502 13.7485 11.4355 13.4647C12.1207 13.1809 12.7063 12.7002 13.1184 12.0835C13.5305 11.4669 13.7504 10.7418 13.7504 10.0001C13.7494 9.0059 13.3539 8.05268 12.6509 7.34964C11.9479 6.6466 10.9946 6.25118 10.0004 6.25015ZM10.0004 12.5001C9.50594 12.5001 9.02259 12.3535 8.61147 12.0788C8.20034 11.8041 7.87991 11.4137 7.69069 10.9569C7.50147 10.5 7.45197 9.99738 7.54843 9.51242C7.64489 9.02747 7.88299 8.58201 8.23263 8.23238C8.58226 7.88275 9.02771 7.64465 9.51267 7.54819C9.99762 7.45172 10.5003 7.50123 10.9571 7.69045C11.4139 7.87967 11.8044 8.2001 12.0791 8.61122C12.3538 9.02235 12.5004 9.5057 12.5004 10.0001C12.5004 10.6632 12.237 11.2991 11.7682 11.7679C11.2993 12.2368 10.6634 12.5001 10.0004 12.5001ZM18.5895 8.37593C18.572 8.28792 18.5359 8.20469 18.4835 8.13189C18.431 8.05909 18.3635 7.99844 18.2855 7.95405L15.9551 6.62593L15.9457 3.99937C15.9454 3.90891 15.9255 3.81959 15.8873 3.73758C15.8492 3.65557 15.7936 3.58282 15.7246 3.52437C14.8792 2.80929 13.9057 2.26129 12.8559 1.90952C12.7732 1.88154 12.6856 1.87118 12.5986 1.87912C12.5117 1.88706 12.4274 1.91312 12.3512 1.95562L10.0004 3.26968L7.64727 1.95327C7.57098 1.91053 7.48658 1.88428 7.39951 1.87621C7.31244 1.86813 7.22464 1.87842 7.1418 1.9064C6.0927 2.26074 5.12031 2.81082 4.27617 3.52749C4.20724 3.58586 4.15178 3.65848 4.11361 3.74035C4.07545 3.82222 4.05548 3.91138 4.05508 4.00171L4.04336 6.63062L1.71289 7.95874C1.63493 8.00313 1.56743 8.06378 1.51499 8.13658C1.46255 8.20937 1.4264 8.29261 1.40899 8.38062C1.1957 9.4524 1.1957 10.5557 1.40899 11.6275C1.4264 11.7155 1.46255 11.7987 1.51499 11.8715C1.56743 11.9443 1.63493 12.005 1.71289 12.0494L4.04336 13.3775L4.05274 16.0041C4.05302 16.0945 4.07294 16.1838 4.11111 16.2658C4.14928 16.3479 4.2048 16.4206 4.27383 16.4791C5.1192 17.1941 6.0927 17.7421 7.14258 18.0939C7.22526 18.1219 7.31288 18.1322 7.39981 18.1243C7.48673 18.1164 7.57103 18.0903 7.64727 18.0478L10.0004 16.7306L12.3535 18.047C12.4466 18.0989 12.5516 18.1258 12.6582 18.1251C12.7265 18.1251 12.7943 18.114 12.859 18.0923C13.908 17.7385 14.8804 17.1889 15.7246 16.4728C15.7935 16.4144 15.849 16.3418 15.8872 16.2599C15.9253 16.1781 15.9453 16.0889 15.9457 15.9986L15.9574 13.3697L18.2879 12.0416C18.3659 11.9972 18.4334 11.9365 18.4858 11.8637C18.5382 11.7909 18.5744 11.7077 18.5918 11.6197C18.8039 10.5488 18.8031 9.44655 18.5895 8.37593ZM17.4176 11.1033L15.1855 12.3728C15.0878 12.4284 15.0068 12.5094 14.9512 12.6072C14.9059 12.6853 14.8582 12.7681 14.8098 12.8462C14.7478 12.9448 14.7147 13.0587 14.7145 13.1751L14.7027 15.6947C14.1028 16.1658 13.4344 16.5426 12.7207 16.8119L10.4691 15.5572C10.3757 15.5055 10.2705 15.4786 10.1637 15.4791H10.1488C10.0543 15.4791 9.95899 15.4791 9.86446 15.4791C9.75265 15.4763 9.64211 15.5032 9.54414 15.5572L7.29102 16.815C6.57579 16.5477 5.90557 16.1729 5.30352 15.7033L5.29492 13.1876C5.29454 13.071 5.26152 12.9568 5.19961 12.858C5.15117 12.7798 5.10352 12.7017 5.05899 12.6189C5.00377 12.5196 4.92281 12.437 4.82461 12.3798L2.59024 11.1072C2.47461 10.3758 2.47461 9.63076 2.59024 8.89937L4.81836 7.62749C4.91616 7.57188 4.99713 7.49091 5.05274 7.39312C5.09805 7.31499 5.14571 7.23218 5.19414 7.15405C5.25615 7.05553 5.28917 6.94156 5.28945 6.82515L5.30117 4.30562C5.90112 3.83448 6.5695 3.45774 7.28321 3.18843L9.53164 4.44312C9.6295 4.49736 9.74012 4.52434 9.85196 4.52124C9.94649 4.52124 10.0418 4.52124 10.1363 4.52124C10.2481 4.52404 10.3587 4.49707 10.4566 4.44312L12.7098 3.1853C13.425 3.45255 14.0952 3.82744 14.6973 4.29702L14.7059 6.81265C14.7062 6.92928 14.7393 7.04349 14.8012 7.14234C14.8496 7.22046 14.8973 7.29859 14.9418 7.3814C14.997 7.48071 15.078 7.56329 15.1762 7.62046L17.4105 8.89312C17.5277 9.62508 17.529 10.3709 17.4145 11.1033H17.4176Z" fill="white" fill-opacity="0.7"/>
</svg>
