<svg width="97" height="100" viewBox="0 0 97 100" fill="none" xmlns="http://www.w3.org/2000/svg">
<g id="Group 481423" opacity="0.2">
<path id="Vector" d="M19.5263 -3.99418C27.9957 6.98002 40.662 13.9644 53.7886 21.8044C62.6574 27.1008 63.4013 26.9786 68.4493 35.162C66.455 25.8175 68.704 22.465 70.105 20.4831C68.6693 20.1776 65.578 18.5741 64.6778 16.6301C65.8587 17.474 68.5101 17.6952 70.1658 16.9473C66.9529 15.9084 63.4968 12.9226 62.5243 9.44783C67.9862 14.3049 82.2359 8.82506 85.7382 15.5999C90.0453 15.5999 93.1105 18.4868 94.1699 21.9731C87.9902 19.7469 82.9045 21.7782 81.5036 25.41C80.1055 29.0419 81.8335 31.5999 85.1535 34.5974C88.0972 37.2631 95.374 44.6171 96.9429 52.7742C74.4699 46.2293 43.5044 29.1409 22.9679 13.4202C21.5699 7.13135 20.5597 1.16262 19.5234 -4" fill="#E2491A"/>
<path id="Vector_2" d="M37.0742 48.6411C52.4645 56.3832 72.7007 64.2199 91.7839 68.0609C89.9866 69.7107 87.8974 71.0941 85.8197 72.3831C61.1248 70.6244 46.3442 61.0176 37.0742 48.6411Z" fill="#E2491A"/>
<path id="Vector_3" d="M96.9476 58.4315C96.7046 60.623 96.0973 62.5035 95.2211 64.1322C72.8288 59.85 47.8713 49.1683 31.8615 39.9465C28.6774 33.7483 26.4159 27.2006 24.6895 20.7773C45.9019 36.4135 75.1626 52.3725 96.9476 58.4345V58.4315Z" fill="#E2491A"/>
<path id="Vector_4" d="M52.5583 71.745L14.9773 97.1638H0.945312L49.4967 67.4943C50.0851 67.1357 50.8192 67.1474 51.4076 67.4825C51.4309 67.4943 51.4455 67.5061 51.4571 67.5208C52.0456 67.8529 52.4242 68.4585 52.4359 69.1258V69.5197C52.4359 70.2605 52.4738 71.0013 52.5583 71.745Z" fill="#E2491A"/>
<path id="Vector_5" d="M55.6534 79.7205L35.9905 97.1545H22.6211L53.5486 74.4448C53.9963 76.294 54.7077 78.0693 55.6534 79.7235V79.7205Z" fill="#E2491A"/>
<path id="Vector_6" d="M59.7828 85.0967L52.0369 97.1621H42.2344L56.692 81.6782C57.5914 82.9191 58.6256 84.0696 59.7828 85.0967Z" fill="#E2491A"/>
<path id="Vector_7" d="M96.7323 99.2294C95.8071 96.7145 93.5218 95.061 90.0028 94.7083C89.2743 95.4744 86.7805 95.7403 85.4087 94.7806C82.2099 95.3038 81.2846 93.844 79.3959 94.2342C77.5071 94.6245 77.137 97.1857 78.1622 98.3766C73.5446 95.9947 76.0149 91.4996 78.7438 91.4996C80.2624 91.4996 81.4491 92.5085 82.8913 92.046C72.3843 86.675 65.9749 79.4829 64.1479 82.628C60.8169 80.2316 58.4435 76.6211 57.7326 72.4584C57.6063 71.7213 58.3642 71.149 59.0662 71.4322C63.6397 73.2852 68.7214 74.7739 74.37 75.8117V75.8232C74.1468 76.1036 73.7884 76.358 73.2332 76.5286C70.2077 77.4999 71.1594 81.8764 73.8883 83.6484C76.6905 85.458 80.0627 87.8515 84.0252 89.8808C87.1359 91.7887 89.0863 90.0514 90.5814 91.595C94.3854 89.7363 97.8544 95.3992 96.7294 99.2265L96.7323 99.2294Z" fill="#E2491A"/>
</g>
</svg>
