<svg width="40" height="40" viewBox="0 0 40 40" fill="none" xmlns="http://www.w3.org/2000/svg">
<g id="Group 481476">
<rect id="Rectangle 39280" width="40" height="40" rx="8" fill="url(#paint0_linear_174_2514)" fill-opacity="0.05"/>
<g id="Group 481423">
<path id="Vector" d="M11.6783 9.00115C13.3545 11.1731 15.8614 12.5554 18.4593 14.1071C20.2146 15.1553 20.3618 15.1311 21.3609 16.7507C20.9662 14.9013 21.4113 14.2378 21.6886 13.8456C21.4044 13.7851 20.7926 13.4678 20.6145 13.083C20.8482 13.25 21.3729 13.2938 21.7006 13.1458C21.0647 12.9402 20.3807 12.3492 20.1882 11.6615C21.2692 12.6228 24.0895 11.5383 24.7826 12.8791C25.6351 12.8791 26.2417 13.4505 26.4514 14.1405C25.2283 13.6999 24.2218 14.1019 23.9445 14.8207C23.6678 15.5395 24.0098 16.0458 24.6669 16.639C25.2495 17.1666 26.6897 18.6221 27.0002 20.2365C22.5525 18.9411 16.4239 15.5591 12.3594 12.4477C12.0828 11.2031 11.8828 10.0218 11.6777 9" fill="#E2491A"/>
<path id="Vector_2" d="M15.1504 19.4187C18.1964 20.951 22.2014 22.502 25.9783 23.2622C25.6225 23.5887 25.2091 23.8625 24.7979 24.1176C19.9104 23.7695 16.9851 21.8682 15.1504 19.4187Z" fill="#E2491A"/>
<path id="Vector_3" d="M27.0002 21.3561C26.9521 21.7899 26.8319 22.162 26.6585 22.4844C22.2267 21.6369 17.2873 19.5228 14.1187 17.6977C13.4885 16.471 13.0409 15.1751 12.6992 13.9038C16.8975 16.9984 22.6886 20.157 27.0002 21.3567V21.3561Z" fill="#E2491A"/>
<path id="Vector_4" d="M18.215 23.9911L10.7772 29.0219H8L17.609 23.1498C17.7255 23.0788 17.8708 23.0812 17.9872 23.1475C17.9919 23.1498 17.9947 23.1521 17.997 23.1551C18.1135 23.2208 18.1885 23.3406 18.1908 23.4727V23.5507C18.1908 23.6973 18.1983 23.8439 18.215 23.9911Z" fill="#E2491A"/>
<path id="Vector_5" d="M18.8286 25.5695L14.937 29.02H12.291L18.412 24.5254C18.5006 24.8914 18.6414 25.2427 18.8286 25.5701V25.5695Z" fill="#E2491A"/>
<path id="Vector_6" d="M19.645 26.6338L18.1119 29.0218H16.1719L19.0333 25.9573C19.2113 26.2029 19.4159 26.4306 19.645 26.6338Z" fill="#E2491A"/>
<path id="Vector_7" d="M26.9577 29.4304C26.7746 28.9327 26.3223 28.6054 25.6258 28.5356C25.4816 28.6872 24.9881 28.7399 24.7166 28.5499C24.0835 28.6535 23.9004 28.3645 23.5266 28.4418C23.1527 28.519 23.0795 29.0259 23.2824 29.2616C22.3685 28.7902 22.8574 27.9006 23.3975 27.9006C23.6981 27.9006 23.9329 28.1002 24.2184 28.0087C22.1389 26.9457 20.8704 25.5223 20.5088 26.1447C19.8495 25.6704 19.3798 24.9559 19.2391 24.132C19.2141 23.9861 19.3641 23.8729 19.503 23.9289C20.4082 24.2956 21.4139 24.5903 22.5319 24.7957V24.798C22.4877 24.8535 22.4168 24.9038 22.3069 24.9376C21.7081 25.1298 21.8964 25.996 22.4365 26.3467C22.9911 26.7048 23.6585 27.1785 24.4428 27.5802C25.0584 27.9578 25.4444 27.6139 25.7404 27.9194C26.4932 27.5516 27.1798 28.6723 26.9571 29.4298L26.9577 29.4304Z" fill="#E2491A"/>
</g>
</g>
<defs>
<linearGradient id="paint0_linear_174_2514" x1="20" y1="0" x2="20" y2="40" gradientUnits="userSpaceOnUse">
<stop stop-color="white"/>
<stop offset="1" stop-color="white" stop-opacity="0.5"/>
</linearGradient>
</defs>
</svg>
