<svg width="44" height="52" viewBox="0 0 44 52" fill="none" xmlns="http://www.w3.org/2000/svg">
<g id="Frame 1597877843">
<g id="Group 1">
<g id="_556486496_1_">
<path id="Vector" d="M21.9473 7.92041C9.83031 7.92041 0 17.7804 0 29.9675C0 42.1395 9.8307 51.9995 21.9473 51.9995C34.0639 51.9995 43.8946 42.1395 43.8946 29.9675C43.895 17.7804 34.0643 7.92041 21.9473 7.92041ZM21.7342 23.139C20.957 23.139 20.3318 23.7821 20.3318 24.5627C20.3318 25.3434 20.9566 25.9865 21.7342 25.9865C22.5113 25.9865 23.1514 25.3434 23.1514 24.5627C23.1514 23.7821 22.5113 23.139 21.7342 23.139ZM24.9652 12.4522C32.083 13.5392 36.9907 18.1325 38.8652 23.721C41.2731 30.8711 38.0575 40.838 30.7265 43.5786C24.8588 45.768 16.4913 44.0837 16.7656 37.4236C16.8877 34.7595 18.5338 32.5547 21.0638 31.7279C21.1859 31.6818 21.3228 31.636 21.4602 31.6053C19.5398 33.167 19.5551 35.6931 21.0944 37.4997C22.5729 39.2451 25.4993 40.3322 28.8524 38.6021C33.6227 36.1371 35.0098 31.6053 35.33 29.4616C35.635 27.3179 36.3968 21.7602 32.6171 17.3511C29.3548 13.5238 26.1693 12.6513 24.9652 12.4522ZM13.4275 19.3268C13.9154 21.1487 17.7257 20.4749 18.838 20.4599C22.5568 20.3988 25.3918 22.8942 25.7729 26.6607C25.7729 26.6607 27.2055 27.702 27.9677 29.3094C28.7146 30.9169 28.5317 33.1217 28.5317 33.1217C28.5317 33.1217 26.3675 30.8096 23.1059 30.6567C13.6108 30.1973 11.5683 42.9817 22.1914 45.5997C29.9796 47.5288 35.1008 42.1395 35.1008 42.1395C31.9762 45.4621 27.587 47.5596 22.7248 47.6818C19.2042 47.6511 16.2778 46.4876 14.0676 44.6503C9.86093 41.129 8.97705 34.9586 12.5738 30.687C14.1591 28.804 16.9481 26.5073 15.4241 23.7359C14.7686 22.5571 13.1531 21.1945 13.4275 19.3268ZM4.25224 30.3503C4.25224 20.3527 12.3148 12.2531 22.2825 12.2531H22.6177C22.6177 12.2531 16.0332 13.141 12.8329 16.4024C9.6168 19.6635 9.55595 22.1439 9.61679 23.2616C9.66271 24.1038 10.1808 25.1908 11.3084 25.5275C11.5066 25.4049 11.7198 25.2981 11.9333 25.1908C13.0307 24.655 13.869 24.0119 13.7929 22.9707C13.7929 22.8331 13.747 22.6951 13.6861 22.5878C16.7955 25.8796 13.1528 28.0844 11.2931 30.1973C7.19318 34.8364 7.43689 40.6543 12.8784 45.2168C9.22037 43.2723 6.75122 40.5013 5.73035 37.5462C4.77032 35.3414 4.25224 32.9072 4.25224 30.3503Z" fill="white"/>
<path id="Vector_2" d="M16.0955 2.71518C16.1261 2.04137 16.492 1.39831 17.1321 1.04622L18.5494 0.25018C19.5247 -0.285639 20.7595 0.066447 21.3082 1.04622L22.6646 3.54198L34.0802 25.8189C34.583 26.7987 34.1411 28.0848 33.181 28.6052C33.059 28.6817 32.9373 28.7278 32.8152 28.7736C32.7085 28.8962 32.5868 29.0184 32.4495 29.1103C31.5958 29.7687 30.2244 29.6769 29.5383 28.8039L12.6357 7.56831L10.3193 4.491C9.63358 3.60309 9.81648 2.31697 10.7004 1.64315L11.996 0.663381C12.8952 -0.0254163 14.1602 0.158313 14.8309 1.04622L16.0955 2.71518Z" fill="white"/>
<path id="Vector_3" d="M21.9458 48.6468C11.6731 48.6468 3.35156 40.2874 3.35156 29.9681C3.35156 19.6487 11.6731 11.2739 21.9458 11.2739C32.2185 11.2739 40.5554 19.6487 40.5554 29.9681C40.5554 40.2874 32.2185 48.6468 21.9458 48.6468Z" fill="url(#paint0_linear_338_3532)"/>
<path id="Vector_4" d="M20.7279 19.3577C21.2076 19.3577 21.5965 18.6858 21.5965 17.8571C21.5965 17.0283 21.2076 16.3564 20.7279 16.3564C20.2482 16.3564 19.8594 17.0283 19.8594 17.8571C19.8594 18.6858 20.2482 19.3577 20.7279 19.3577Z" fill="#1F2123"/>
<path id="Vector_5" d="M28.5787 35.9389C28.4111 34.8211 26.6127 33.4892 24.5702 32.9534C22.5277 32.4176 21.0189 32.8769 21.1865 33.9947C21.3541 35.0971 23.1525 36.429 25.1951 36.9648C27.2223 37.5006 28.7467 37.0413 28.5787 35.9389Z" fill="#1F2123"/>
<path id="Vector_6" d="M16.1108 15.5142C15.6229 15.5142 15.0742 16.1726 15.0742 16.693C15.0742 17.2135 15.7905 17.6574 16.2784 17.6574C16.7509 17.6574 16.8118 17.2442 16.8118 16.7234C16.8118 16.2026 16.5829 15.5142 16.1108 15.5142Z" fill="#1F2123"/>
<path id="Vector_7" d="M30.0859 33.5047C30.5738 33.3517 31.1071 32.2796 31.0765 31.6062C31.0306 30.9174 30.2688 30.5649 29.7656 30.7337C29.2778 30.8867 29.2476 31.4532 29.2778 32.1424C29.3084 32.8159 29.598 33.658 30.0859 33.5047Z" fill="#1F2123"/>
<path id="Vector_8" d="M35.2681 19.9238C35.1767 19.4491 34.064 19.1124 33.3021 19.2808C31.3817 19.6636 32.0218 22.0214 33.9423 21.6232C34.7194 21.4702 35.3749 20.3986 35.2681 19.9238Z" fill="#1F2123"/>
<path id="Vector_9" d="M24.3559 13.8306C24.0816 13.8306 23.7617 14.198 23.7617 14.489C23.7617 14.78 24.1731 15.0402 24.4474 15.0402C24.7064 15.0402 24.7371 14.7954 24.7371 14.5044C24.7371 14.2134 24.615 13.8306 24.3559 13.8306Z" fill="#1F2123"/>
<path id="Vector_10" d="M22.2842 12.2529C12.3165 12.2529 4.25391 20.3521 4.25391 30.3501C4.25391 32.907 4.77201 35.3413 5.73243 37.546C6.75369 40.5011 9.22284 43.2721 12.8805 45.2167C7.43936 40.6541 7.19562 34.8362 11.2952 30.1972C13.1548 28.0842 16.7971 25.8795 13.6882 22.5877C13.7491 22.6949 13.795 22.8325 13.795 22.9705C13.9319 24.8843 9.83238 26.9818 9.61886 23.2615C9.55803 22.1437 9.61887 19.6633 12.8349 16.4023C16.0357 13.1412 22.6197 12.2529 22.6197 12.2529H22.2842Z" fill="#1F2123"/>
<path id="Vector_11" d="M15.4252 23.7363C16.9492 26.5077 14.1602 28.8039 12.5749 30.6874C8.97817 34.959 9.86204 41.1294 14.0688 44.6506C16.2789 46.4879 19.2049 47.6515 22.7259 47.6822C27.5881 47.5596 31.9773 45.462 35.1019 42.1399C35.1019 42.1399 29.9807 47.5292 22.1925 45.6C11.5694 42.9821 13.6119 30.1977 23.107 30.657C26.3686 30.81 28.5328 33.122 28.5328 33.122C28.5328 33.122 28.7157 30.9172 27.9688 29.3098C27.2066 27.7023 25.774 26.6611 25.774 26.6611C25.3929 22.8945 22.5579 20.3992 18.8391 20.4603C17.7264 20.4757 13.9161 21.1491 13.4286 19.3271C13.1543 21.1948 14.7697 22.5574 15.4252 23.7363ZM21.7353 25.9872C20.9582 25.9872 20.3329 25.3442 20.3329 24.5635C20.3329 23.7828 20.9578 23.1398 21.7353 23.1398C22.5124 23.1398 23.1526 23.7828 23.1526 24.5635C23.1526 25.3442 22.5124 25.9872 21.7353 25.9872Z" fill="#1F2123"/>
<path id="Vector_12" d="M28.8531 38.6035C25.5 40.3336 22.5736 39.2465 21.0951 37.5011C19.5558 35.6945 19.5405 33.168 21.4609 31.6067C21.3239 31.6374 21.1866 31.6832 21.0645 31.7293C18.5345 32.5561 16.8884 34.7609 16.7663 37.425C16.492 44.0851 24.8595 45.7694 30.7272 43.58C38.0582 40.8394 41.2742 30.8722 38.8659 23.7224C36.9914 18.1339 32.0837 13.541 24.9659 12.4536C26.17 12.6527 29.3555 13.5252 32.6171 17.3529C36.3968 21.7624 35.6349 27.3201 35.33 29.4634C35.0109 31.6063 33.6238 36.1385 28.8531 38.6035Z" fill="#1F2123"/>
<path id="Vector_13" d="M30.8325 27.7624L13.9452 6.52675L11.6437 3.4798C11.5216 3.32682 11.5522 3.09696 11.7045 2.97474L13.0001 1.99497C13.1677 1.87235 13.3812 1.9031 13.5029 2.05608L15.8045 5.11801L31.579 27.1804C31.6858 27.318 31.6399 27.6398 31.4421 27.7774C31.2592 27.9158 30.9389 27.885 30.8325 27.7624ZM31.7772 27.0275L19.1575 5.45472L17.801 3.0051C17.7096 2.82136 17.7704 2.60688 17.938 2.51501L19.3553 1.71897C19.5382 1.62711 19.7517 1.68822 19.8432 1.85658L21.1996 4.32158L32.5999 26.5831C32.6761 26.7207 32.5846 27.0271 32.3715 27.1497C32.1737 27.2573 31.8534 27.1808 31.7772 27.0275Z" fill="#1F2123"/>
<path id="Vector_14" d="M11.339 23.9969C11.8116 24.0123 12.4058 23.0171 12.4364 22.2207C12.467 21.4246 11.781 20.7201 11.3084 20.6897C10.8206 20.6743 10.7444 21.3174 10.7142 22.1134C10.6836 22.8945 10.8665 23.9815 11.339 23.9969Z" fill="#1F2123"/>
<path id="Vector_15" d="M35.011 26.0942C34.7519 26.0942 34.4316 26.4617 34.4316 26.7527C34.4316 27.059 34.843 27.3039 35.1173 27.3039C35.3764 27.3039 35.407 27.0744 35.407 26.7681C35.407 26.4767 35.2853 26.0942 35.011 26.0942Z" fill="#1F2123"/>
<path id="Vector_16" d="M32.1125 33.4272C31.8535 33.4272 31.5332 33.8101 31.5332 34.1011C31.5332 34.392 31.9449 34.6523 32.2189 34.6523C32.4779 34.6523 32.5086 34.4074 32.5086 34.1164C32.509 33.8255 32.3869 33.4272 32.1125 33.4272Z" fill="#1F2123"/>
<path id="Vector_17" d="M33.6216 26.8596C33.3778 26.4311 32.1737 26.4614 31.4727 26.875C29.7351 27.9009 31.1375 29.9831 32.89 28.9572C33.591 28.544 33.8806 27.2886 33.6216 26.8596Z" fill="#1F2123"/>
</g>
</g>
</g>
<defs>
<linearGradient id="paint0_linear_338_3532" x1="18.9869" y1="14.6893" x2="25.1981" y2="48.4225" gradientUnits="userSpaceOnUse">
<stop stop-color="#FCCD15"/>
<stop offset="0.2706" stop-color="#FC941A"/>
<stop offset="0.6118" stop-color="#FC3E28"/>
<stop offset="1" stop-color="#9D1432"/>
</linearGradient>
</defs>
</svg>
