<svg width="20" height="20" viewBox="0 0 20 20" fill="none" xmlns="http://www.w3.org/2000/svg">
<g id="MagnifyingGlass">
<path id="Vector" d="M17.9419 17.058L14.0302 13.1471C15.1639 11.7859 15.7293 10.04 15.6086 8.27263C15.488 6.50524 14.6906 4.85241 13.3823 3.65797C12.074 2.46353 10.3557 1.81944 8.58462 1.85969C6.81357 1.89994 5.12622 2.62143 3.87358 3.87407C2.62094 5.12671 1.89945 6.81406 1.8592 8.5851C1.81895 10.3561 2.46304 12.0745 3.65748 13.3828C4.85192 14.691 6.50475 15.4884 8.27214 15.6091C10.0395 15.7298 11.7854 15.1644 13.1466 14.0306L17.0575 17.9424C17.1156 18.0004 17.1845 18.0465 17.2604 18.0779C17.3363 18.1094 17.4176 18.1255 17.4997 18.1255C17.5818 18.1255 17.6631 18.1094 17.739 18.0779C17.8149 18.0465 17.8838 18.0004 17.9419 17.9424C17.9999 17.8843 18.046 17.8154 18.0774 17.7395C18.1089 17.6636 18.125 17.5823 18.125 17.5002C18.125 17.4181 18.1089 17.3367 18.0774 17.2609C18.046 17.185 17.9999 17.1161 17.9419 17.058ZM3.12469 8.75018C3.12469 7.63766 3.45459 6.55012 4.07267 5.6251C4.69076 4.70007 5.56926 3.9791 6.5971 3.55336C7.62493 3.12761 8.75593 3.01622 9.84707 3.23326C10.9382 3.4503 11.9405 3.98603 12.7272 4.7727C13.5138 5.55937 14.0496 6.56165 14.2666 7.6528C14.4837 8.74394 14.3723 9.87494 13.9465 10.9028C13.5208 11.9306 12.7998 12.8091 11.8748 13.4272C10.9497 14.0453 9.86221 14.3752 8.74969 14.3752C7.25836 14.3735 5.82858 13.7804 4.77404 12.7258C3.71951 11.6713 3.12634 10.2415 3.12469 8.75018Z" fill="white" fill-opacity="0.7"/>
</g>
</svg>
