<svg xmlns="http://www.w3.org/2000/svg" width="88" height="25" viewBox="0 0 88 25" fill="none">
    <g clip-path="url(#clip0_985_19616)">
        <mask id="mask0_985_19616" style="mask-type:luminance" maskUnits="userSpaceOnUse" x="0" y="0" width="88"
            height="25">
            <path d="M0 0.5H87.2727V24.5H0V0.5Z" fill="white" />
        </mask>
        <g mask="url(#mask0_985_19616)">
            <path opacity="0.75"
                d="M21.6378 15.9414C22.3418 14.0251 22.6175 11.9574 22.328 9.93125C21.8313 6.45416 19.9687 3.77052 16.464 1.88107C12.0073 -0.554569 5.96365 0.306522 2.34838 3.88034C0.348381 5.8658 -0.866164 9.15089 0.748381 11.4643C1.92074 13.1349 4.16947 13.7509 5.49456 15.2978C7.14984 17.2425 7.0262 20.2403 8.66765 22.1851C10.1302 23.9094 12.752 24.3887 14.9047 23.6767C16.712 23.0876 19.9687 20.4731 21.6378 15.9414Z"
                fill="#A6A6A6" />
            <path opacity="0.8"
                d="M14.9015 23.6902C16.7095 23.1011 19.9655 20.4865 21.6353 15.9549C22.3393 14.0378 22.7255 12.1898 22.3255 9.94471C20.9873 2.53744 11.8383 12.0669 10.2521 13.0385C7.13353 14.9418 6.27826 19.1309 8.49935 22.0203C8.55462 22.088 8.59608 22.1563 8.65208 22.2116C10.1139 23.9229 12.7488 24.3883 14.9015 23.6902Z"
                fill="#6B6B6B" />
            <path opacity="0.7"
                d="M17.7445 3.03299C15.8122 2.3348 13.7293 2.06135 11.6864 2.34862C8.18235 2.84171 5.47763 4.68971 3.57363 8.1668C1.11763 12.5886 1.98672 18.5857 5.58817 22.1726C7.58817 24.1581 10.9002 25.3632 13.2318 23.761C14.9154 22.5973 15.5365 20.3653 17.0958 19.0512C19.0551 17.4083 22.0769 17.5312 24.0362 15.9021C25.7744 14.4512 26.258 11.8497 25.5402 9.71444C24.9467 7.92099 22.3118 4.68971 17.7445 3.03299Z"
                fill="#858585" />
            <path
                d="M13.7431 17.6693L11.9634 14.1093L10.7765 15.1908L10.2383 17.6693H8.20996L10.1554 8.55078H12.1976L11.4391 12.097L15.3576 8.55078H18.1867L13.5634 12.6853L16.1852 17.6693H13.7431Z"
                fill="white" />
            <path
                d="M44.1926 21.5179L40.674 14.7826L38.3009 16.9179L37.3351 21.5317H34.1475L37.6107 5.28076H40.7984L39.3358 12.1404L47.0071 5.28076H51.3947L43.1998 12.5506L47.9322 21.5179H44.1926Z"
                fill="white" />
            <path
                d="M58.2688 10.2319H61.2491L59.3728 19.0356C59.2346 19.6923 59.1655 20.3766 59.1655 21.0756C59.1655 21.2254 59.18 21.3766 59.1931 21.5134H56.351C56.3318 21.3361 56.3226 21.1579 56.3233 20.9796C56.3233 20.7737 56.3371 20.4996 56.3648 20.1308C55.647 21.1854 54.6266 21.7185 53.3153 21.7185C51.9626 21.7185 50.8862 21.2392 50.0862 20.2814C49.2862 19.3228 48.8862 18.1316 48.8862 16.6937C48.8862 14.7774 49.4382 13.189 50.5553 11.8886C51.6593 10.6014 53.039 9.94465 54.695 9.94465C55.6331 9.94465 56.3648 10.109 56.903 10.4239C57.4411 10.7388 57.7997 11.1083 58.0062 11.5054L58.2681 10.2326L58.2688 10.2319ZM54.9437 12.6828C54.0186 12.6828 53.2877 13.0799 52.7495 13.8741C52.2113 14.6676 51.935 15.5716 51.935 16.5847C51.935 17.365 52.1284 17.981 52.5422 18.4188C52.9422 18.8574 53.4804 19.0901 54.1568 19.0901C54.9713 19.0901 55.6746 18.7206 56.2542 17.9948C56.8339 17.269 57.1233 16.2974 57.1233 15.0923C57.1233 14.3396 56.9306 13.7505 56.5437 13.3265C56.1582 12.9017 55.62 12.6828 54.9437 12.6828ZM75.7924 4.91992L72.7844 19.0486C72.6462 19.6654 72.5633 20.3221 72.5357 21.0479C72.5357 21.3076 72.5502 21.4719 72.5633 21.5272H69.7626C69.7437 21.336 69.7344 21.144 69.735 20.9519C69.735 20.7468 69.7488 20.4865 69.7764 20.1446C69.0586 21.1985 68.0382 21.7323 66.727 21.7323C65.3742 21.7185 64.2979 21.2392 63.4979 20.2945C62.6979 19.3497 62.2979 18.1592 62.2979 16.7214C62.2979 14.805 62.8499 13.2166 63.9677 11.9163C65.071 10.629 66.4513 9.97156 68.1066 9.97156C69.6935 9.97156 70.7699 10.4646 71.3357 11.437L72.7153 4.92065L75.7924 4.91992ZM68.3415 12.6828C67.4171 12.6828 66.6855 13.0799 66.1473 13.8741C65.6091 14.6676 65.3328 15.5716 65.3328 16.5847C65.3328 17.365 65.5262 17.981 65.9408 18.4188C66.3408 18.8574 66.879 19.0901 67.5553 19.0901C68.3691 19.0901 69.0724 18.7206 69.6521 17.9948C70.2317 17.269 70.5211 16.2974 70.5211 15.0923C70.5211 14.3396 70.3284 13.7505 69.9422 13.3265C69.5553 12.9017 69.0171 12.6828 68.3415 12.6828ZM87.2724 15.1337C87.2724 16.981 86.6651 18.5694 85.4644 19.8843C84.2644 21.1985 82.7466 21.8552 80.9117 21.8552C79.3524 21.8552 78.0964 21.349 77.1444 20.3497C76.1924 19.3497 75.7095 18.1039 75.7095 16.5985C75.7095 14.6406 76.3306 13.0385 77.5582 11.7657C78.7866 10.5061 80.3044 9.87629 82.084 9.87629C83.6571 9.87629 84.9131 10.3686 85.8513 11.3686C86.8033 12.3679 87.2724 13.6276 87.2724 15.1337ZM81.8637 12.669C80.98 12.669 80.2491 13.0385 79.6695 13.7643C79.0899 14.4901 78.7866 15.3934 78.7866 16.4748C78.7866 17.269 79.007 17.8988 79.4346 18.3781C79.863 18.8574 80.4288 19.0901 81.1182 19.0901C81.919 19.0901 82.636 18.7483 83.2571 18.0632C83.8782 17.3788 84.1953 16.4479 84.1953 15.2559C84.1953 14.4487 83.9881 13.8188 83.5604 13.3534C83.1328 12.8879 82.567 12.669 81.8637 12.669Z"
                fill="white" />
        </g>
    </g>
    <defs>
        <clipPath id="clip0_985_19616">
            <rect width="88" height="25" fill="white" />
        </clipPath>
    </defs>
</svg>